<?xml version="1.0" standalone="no"?>
<!DOCTYPE svg PUBLIC "-//W3C//DTD SVG 1.1//EN" "http://www.w3.org/Graphics/SVG/1.1/DTD/svg11.dtd" >
<svg xmlns="http://www.w3.org/2000/svg" xmlns:xlink="http://www.w3.org/1999/xlink" version="1.1">
<metadata>
Created by FontForge 20190801 at Thu Aug 16 22:23:17 2007
 By Jimmy Wärting
Copyright 1990, 2002 Adobe Systems Incorporated. All rights reserved. Copyright 1990, 2002 The Monotype Corporation PLC. All rights reserved. Bembo is a trademark of The Monotype Corporation registered in the U.S. Patent and Trademark Office and which may be registered in certain other jurisdictions.
</metadata>
<defs>
<font id="BemboStd-Bold" horiz-adv-x="313" >
  <font-face 
    font-family="Bembo Std"
    font-weight="700"
    font-stretch="normal"
    units-per-em="1000"
    panose-1="2 4 8 7 6 3 6 2 4 4"
    ascent="672"
    descent="-328"
    x-height="408"
    cap-height="622"
    bbox="-154 -233 1268 871"
    underline-thickness="50"
    underline-position="-100"
    stemh="42"
    stemv="122"
    unicode-range="U+0020-FB04"
  />
<missing-glyph horiz-adv-x="500" 
d="M0 0v700h500v-700h-500zM250 395l170 255h-340zM280 350l170 -255v510zM80 50h340l-170 255zM50 605v-510l170 255z" />
    <glyph glyph-name="f_i" unicode="fi" horiz-adv-x="583" 
d="M206 356v-258c0 -46 12 -66 67 -66v-32h-253v32c48 0 64 12 64 70v254h-64v20l64 32c0 163 137 264 259 264c61 0 128 -37 128 -56c0 -9 0 -12 -9 -23l-31 -38c-6 -7 -13 -12 -20 -12c-29 0 -68 74 -128 74c-48 0 -77 -38 -77 -115v-94h99v-28l170 50h21v-335
c0 -50 24 -63 57 -63v-32h-234v32c38 0 55 19 55 63v228c0 21 -2 33 -19 33h-16h-133z" />
    <glyph glyph-name="f_l" unicode="fl" horiz-adv-x="583" 
d="M209 356v-257c0 -50 10 -67 53 -67h12v-32h-254v32h11c41 0 56 18 56 70v254h-67v17l69 32c17 158 161 244 271 244c24 0 54 -4 73 -4c22 0 36 8 42 24h22v-569c0 -49 19 -68 55 -68v-32h-227v32c47 3 50 22 50 69v255h-166zM375 408v144c-32 25 -56 36 -79 36
c-68 0 -87 -54 -87 -130v-50h166z" />
    <glyph glyph-name="f_f" unicode="ff" horiz-adv-x="615" 
d="M498 356v-245c0 -64 17 -79 63 -79h46v-32h-294v32c50 0 63 18 63 70v254h-172v-245c0 -57 10 -79 66 -79v-32h-264v32h20c44 0 56 24 56 70v254h-76v19l78 33c13 131 134 240 280 240c12 0 79 0 111 -36c21 17 74 60 157 60c77 0 133 -40 133 -56c0 -12 -6 -20 -9 -24
l-31 -39c-2 -2 -13 -13 -21 -13c-14 0 -24 10 -39 25c-18 19 -54 51 -89 51c-78 0 -78 -102 -78 -147v-61h102l-7 -52h-95zM204 408h172c0 50 12 95 32 127c-6 1 -19 2 -32 12c-29 21 -56 41 -91 41c-37 0 -59 -20 -72 -45c-3 -7 -9 -20 -9 -60v-75z" />
    <glyph glyph-name="f_f_i" unicode="ffi" horiz-adv-x="937" 
d="M528 356v-245c0 -61 8 -79 74 -79v-32h-273v32c68 0 77 7 77 82v242h-201v-245c0 -61 12 -79 67 -79v-32h-247v32c50 0 58 16 58 82v242h-63v20l63 32c20 164 173 237 277 237c43 0 82 -10 104 -23c10 -6 18 -13 26 -19c46 41 105 69 169 69c87 0 156 -55 156 -71
c0 -4 -2 -13 -9 -21l-33 -40c-4 -5 -13 -13 -20 -13c-13 0 -35 22 -40 27c-24 24 -64 64 -105 64c-80 0 -80 -95 -80 -163v-47h123v-35l181 60h19v-323c0 -59 4 -78 60 -78v-32h-242v32c56 0 60 19 60 78v212c0 33 -4 35 -27 34h-174zM205 408h201c0 40 7 81 22 118
c-20 -1 -47 13 -60 23c-27 19 -49 35 -84 35c-27 0 -55 -15 -67 -41c-12 -24 -12 -42 -12 -92v-43z" />
    <glyph glyph-name="f_f_l" unicode="ffl" horiz-adv-x="937" 
d="M528 356v-245c0 -61 8 -79 74 -79v-32h-272v32c71 0 76 7 76 82v242h-201v-245c0 -56 12 -79 66 -79v-32h-246v32c50 0 58 16 58 82v242h-63v22l63 30c7 39 14 70 36 105c45 69 131 133 246 133c39 0 109 -8 140 -61c55 47 127 69 186 69c15 0 78 -7 91 -7
c37 0 43 16 45 25h24v-562c0 -63 8 -78 60 -78v-32h-243v32c57 0 61 14 61 78v246h-201zM205 408h201c5 43 16 88 45 122c-8 -1 -15 -3 -22 -3c-27 0 -48 15 -70 30c-18 12 -46 29 -74 29c-37 0 -64 -27 -72 -48c-6 -16 -8 -36 -8 -80v-50zM528 408h201v131
c-22 21 -66 57 -108 57c-93 0 -93 -114 -93 -150v-38z" />
    <glyph glyph-name=".notdef" horiz-adv-x="500" 
d="M0 0v700h500v-700h-500zM250 395l170 255h-340zM280 350l170 -255v510zM80 50h340l-170 255zM50 605v-510l170 255z" />
    <glyph glyph-name="space" unicode=" " horiz-adv-x="333" 
 />
    <glyph glyph-name="exclam" unicode="!" 
d="M156 124c46 0 81 -29 81 -67c0 -37 -33 -68 -81 -68s-80 31 -80 68c0 39 37 67 80 67zM173 224h-34l-56 372c-5 35 -1 41 28 41h90c32 0 33 -7 29 -41z" />
    <glyph glyph-name="quotedbl" unicode="&#x22;" horiz-adv-x="552" 
d="M382 312l-50 187c-6 23 -10 46 -10 63c0 43 31 75 72 75s72 -32 72 -75c0 -17 -4 -40 -10 -63l-50 -187h-24zM146 312l-50 187c-6 23 -10 46 -10 63c0 43 31 75 72 75s72 -32 72 -75c0 -17 -4 -40 -10 -63l-50 -187h-24z" />
    <glyph glyph-name="numbersign" unicode="#" horiz-adv-x="668" 
d="M42 470h157l42 194h70l-42 -194h195l41 194h70l-41 -194h92v-70h-105l-36 -171h141v-70h-155l-41 -193h-70l41 193h-196l-41 -193h-70l41 193h-93v70h107l36 171h-143v70zM255 400l-36 -171h196l36 171h-196z" />
    <glyph glyph-name="dollar" unicode="$" horiz-adv-x="479" 
d="M217 -93v83c-102 4 -188 66 -188 136c0 33 23 57 54 57c91 0 32 -142 134 -159v242c-107 52 -171 107 -171 198c0 83 55 150 171 165v43h31v-43c90 -3 173 -59 173 -117c0 -28 -23 -51 -52 -51c-79 0 -43 110 -121 133v-200c131 -64 196 -118 196 -215
c0 -101 -82 -180 -196 -189v-83h-31zM217 411v186c-45 -6 -78 -40 -78 -82c0 -41 23 -72 78 -104zM248 249v-226c53 8 93 53 93 107c0 49 -28 84 -93 119z" />
    <glyph glyph-name="percent" unicode="%" horiz-adv-x="896" 
d="M706 -8c-74 0 -128 70 -128 168c0 102 52 171 128 171c77 0 129 -69 129 -171c0 -98 -54 -168 -129 -168zM665 236v-146c0 -36 6 -72 41 -72c38 0 42 36 42 72v146c0 33 -6 70 -42 70c-33 0 -41 -37 -41 -70zM189 298c-74 0 -128 70 -128 168c0 102 52 171 128 171
c77 0 129 -69 129 -171c0 -98 -54 -168 -129 -168zM148 542v-146c0 -36 6 -72 41 -72c38 0 42 36 42 72v146c0 33 -6 70 -42 70c-33 0 -41 -37 -41 -70zM190 -28l445 666h71l-445 -666h-71z" />
    <glyph glyph-name="ampersand" unicode="&#x26;" horiz-adv-x="750" 
d="M695 77l19 -36c-36 -33 -92 -55 -142 -55c-62 0 -93 24 -137 91c-54 -56 -133 -91 -203 -91c-94 0 -175 66 -175 170c0 76 50 130 161 175c-52 48 -74 86 -74 132c0 72 68 121 166 121c88 0 146 -41 146 -104c0 -48 -32 -88 -91 -116c51 -37 82 -70 138 -145
c37 53 78 134 78 157c0 12 -12 17 -46 17h-12v38h198v-38h-16c-31 0 -46 -4 -60 -18c-25 -25 -60 -115 -118 -194c44 -76 68 -130 112 -130c17 0 39 10 56 26zM180 195c0 -73 55 -137 118 -137c38 0 71 17 115 58c-37 70 -101 135 -162 190c-48 -29 -71 -66 -71 -111z
M253 492c0 -40 24 -63 76 -104c30 28 43 55 43 88c0 42 -26 70 -65 70c-33 0 -54 -21 -54 -54z" />
    <glyph glyph-name="quoteright" unicode="&#x2019;" 
d="M85 371l-8 42c64 5 110 39 110 83c0 24 -23 12 -48 12c-48 0 -75 26 -75 66s31 67 77 67c66 0 108 -45 108 -115c0 -91 -69 -157 -164 -155z" />
    <glyph glyph-name="parenleft" unicode="(" horiz-adv-x="354" 
d="M189 220c0 -149 32 -296 138 -417h-42c-143 121 -218 266 -218 417s75 296 218 417h42c-106 -121 -138 -268 -138 -417z" />
    <glyph glyph-name="parenright" unicode=")" horiz-adv-x="354" 
d="M165 220c0 149 -32 296 -138 417h42c143 -121 218 -266 218 -417s-75 -296 -218 -417h-42c106 121 138 268 138 417z" />
    <glyph glyph-name="asterisk" unicode="*" horiz-adv-x="521" 
d="M258 317l-118 -105l-33 20l65 147l-136 79l12 38l159 -14l34 155h37l35 -155l160 14l12 -38l-138 -79l63 -147l-32 -20z" />
    <glyph glyph-name="plus" unicode="+" horiz-adv-x="667" 
d="M371 364h229v-76h-229v-229h-76v229h-229v76h229v229h76v-229z" />
    <glyph glyph-name="comma" unicode="," 
d="M85 -146l-8 42c64 5 110 39 110 83c0 24 -23 12 -48 12c-48 0 -75 26 -75 66s31 67 77 67c66 0 108 -45 108 -115c0 -91 -69 -157 -164 -155z" />
    <glyph glyph-name="hyphen" unicode="-" horiz-adv-x="417" 
d="M35 153v98h346v-98h-346z" />
    <glyph glyph-name="period" unicode="." 
d="M156 124c46 0 81 -29 81 -67c0 -37 -33 -68 -81 -68s-80 31 -80 68c0 39 37 67 80 67z" />
    <glyph glyph-name="slash" unicode="/" horiz-adv-x="531" 
d="M404 641h81l-357 -659h-81z" />
    <glyph glyph-name="zero" unicode="0" horiz-adv-x="500" 
d="M42 311c0 216 98 326 208 326c102 0 207 -99 207 -326c0 -242 -117 -325 -207 -325c-108 0 -208 106 -208 325zM170 449v-260c0 -110 18 -166 79 -166c63 0 80 55 80 182v221c0 149 -41 174 -78 174c-59 0 -81 -47 -81 -151z" />
    <glyph glyph-name="one" unicode="1" horiz-adv-x="500" 
d="M324 637v-558c0 -29 9 -45 37 -45h64v-34h-318v34h60c25 0 35 16 35 41v437c-30 -20 -79 -42 -118 -53l-13 30c78 38 144 87 197 148h56z" />
    <glyph glyph-name="two" unicode="2" horiz-adv-x="500" 
d="M32 0v35c202 223 264 280 264 390c0 80 -39 129 -101 129c-55 0 -102 -46 -114 -111h-39c15 115 96 194 199 194c101 0 176 -76 176 -178c0 -143 -126 -191 -269 -355h189c53 0 65 27 72 77h33l-20 -181h-390z" />
    <glyph glyph-name="three" unicode="3" horiz-adv-x="500" 
d="M169 304l-17 29c72 57 103 101 103 151c0 44 -30 76 -72 76c-37 0 -68 -24 -95 -73l-29 13c30 86 96 137 178 137c76 0 135 -48 135 -110c0 -51 -31 -98 -105 -140l2 -2c87 4 151 -68 151 -167c0 -134 -105 -233 -247 -233c-82 0 -145 37 -145 84c0 30 23 52 53 52
c69 0 61 -89 134 -89c52 0 87 55 87 136c0 85 -41 143 -101 143c-12 0 -19 -2 -32 -7z" />
    <glyph glyph-name="four" unicode="4" horiz-adv-x="500" 
d="M250 -15v171h-217v45l286 436h53v-415h85v-66h-85v-171h-122zM250 222v238h-2l-155 -238h157z" />
    <glyph glyph-name="five" unicode="5" horiz-adv-x="500" 
d="M85 303l11 319h223c24 0 31 4 36 17h33l-17 -115h-237l-5 -120c37 10 54 12 81 12c128 0 219 -87 219 -210c0 -128 -103 -221 -244 -221c-82 0 -140 34 -140 81c0 30 21 50 52 50c68 0 60 -88 122 -88c53 0 93 56 93 132c0 89 -48 148 -120 148c-27 0 -52 -6 -78 -20z
" />
    <glyph glyph-name="six" unicode="6" horiz-adv-x="500" 
d="M384 638l19 -31c-119 -40 -198 -133 -218 -255c35 24 66 35 103 35c102 0 170 -77 170 -190c0 -124 -82 -211 -199 -211c-129 0 -216 105 -216 262c0 196 133 348 341 390zM330 185c0 64 -3 154 -74 154c-36 0 -61 -19 -79 -33c-2 -13 -6 -45 -6 -96
c0 -70 7 -187 83 -187c75 0 76 91 76 162z" />
    <glyph glyph-name="seven" unicode="7" horiz-adv-x="500" 
d="M126 -15l225 525h-200c-60 0 -69 -6 -79 -61h-36l14 173h405v-40l-230 -597h-99z" />
    <glyph glyph-name="eight" unicode="8" horiz-adv-x="500" 
d="M439 487c0 -59 -36 -102 -118 -138c90 -47 132 -105 132 -178c0 -102 -93 -186 -206 -186c-107 0 -201 72 -201 167c0 66 39 113 121 147c-73 52 -110 101 -110 169c0 96 83 169 191 169c105 0 191 -68 191 -150zM354 122c0 72 -48 100 -150 155
c-39 -32 -53 -64 -53 -122c0 -83 38 -133 101 -133c59 0 102 42 102 100zM341 486c0 72 -35 114 -97 114c-53 0 -89 -35 -89 -86c0 -55 38 -95 136 -144c35 29 50 64 50 116z" />
    <glyph glyph-name="nine" unicode="9" horiz-adv-x="500" 
d="M116 -15l-23 33c130 42 198 141 221 254c-41 -25 -67 -34 -103 -34c-100 0 -171 79 -171 189c0 120 86 210 201 210c128 0 216 -98 216 -267c0 -188 -134 -343 -341 -385zM168 445c0 -69 0 -160 71 -160c30 0 58 14 83 31c3 30 7 70 7 105c0 75 -12 179 -86 179
c-68 0 -75 -78 -75 -155z" />
    <glyph glyph-name="colon" unicode=":" 
d="M156 419c46 0 81 -29 81 -67c0 -37 -33 -68 -81 -68s-80 31 -80 68c0 39 37 67 80 67zM156 124c46 0 81 -29 81 -67c0 -37 -33 -68 -81 -68s-80 31 -80 68c0 39 37 67 80 67z" />
    <glyph glyph-name="semicolon" unicode=";" 
d="M85 -146l-8 42c64 5 110 39 110 83c0 24 -23 12 -48 12c-48 0 -75 26 -75 66s31 67 77 67c66 0 108 -45 108 -115c0 -91 -69 -157 -164 -155zM159 419c46 0 81 -29 81 -67c0 -37 -33 -68 -81 -68s-80 31 -80 68c0 39 37 67 80 67z" />
    <glyph glyph-name="less" unicode="&#x3c;" horiz-adv-x="667" 
d="M66 291v70l534 224v-83l-430 -176l430 -176v-83z" />
    <glyph glyph-name="equal" unicode="=" horiz-adv-x="667" 
d="M66 480h534v-76h-534v76zM66 250h534v-76h-534v76z" />
    <glyph glyph-name="greater" unicode="&#x3e;" horiz-adv-x="667" 
d="M601 361v-70l-534 -224v83l430 176l-430 176v83z" />
    <glyph glyph-name="question" unicode="?" horiz-adv-x="365" 
d="M149 185h-35c-28 47 -42 85 -42 114c0 119 210 64 210 171c0 37 -27 64 -65 64c-42 0 -69 -17 -112 -17c-38 0 -61 20 -61 53c0 41 39 67 98 67c110 0 188 -84 188 -203c0 -188 -198 -151 -198 -200c0 -13 3 -22 17 -49zM143 124c46 0 81 -29 81 -67
c0 -37 -33 -68 -81 -68s-80 31 -80 68c0 39 37 67 80 67z" />
    <glyph glyph-name="at" unicode="@" horiz-adv-x="927" 
d="M576 452l119 5l-90 -307c-6 -22 -14 -59 -14 -75c0 -22 17 -39 40 -39c65 0 210 112 210 303c0 182 -128 308 -313 308c-295 0 -432 -245 -432 -451c0 -226 158 -385 382 -385c179 0 348 108 399 270h31c-77 -191 -231 -297 -431 -297c-251 0 -432 179 -432 429
c0 269 199 465 472 465c210 0 351 -132 351 -330c0 -196 -128 -348 -293 -348c-62 0 -99 33 -99 87c0 16 4 41 12 65l-2 2c-55 -95 -102 -154 -167 -154c-50 0 -81 43 -81 110c0 191 159 360 251 360c41 0 62 -23 69 -76h2zM502 435c-56 0 -139 -205 -139 -299
c0 -26 12 -46 29 -46c42 0 145 151 145 280c0 40 -15 65 -35 65z" />
    <glyph glyph-name="A" unicode="A" horiz-adv-x="740" 
d="M443 231h-219l-42 -117c-18 -51 -17 -75 79 -75h13v-39h-265v39h15c48 0 73 22 98 92l171 477l-11 29h148l200 -508c26 -66 48 -86 100 -90v-39h-325v39h35c61 0 70 27 50 76zM420 286l-92 234l-84 -234h176z" />
    <glyph glyph-name="B" unicode="B" horiz-adv-x="698" 
d="M131 123v372c0 77 -11 88 -87 88h-25v39c25 1 73 5 126 8c60 3 119 7 162 7c125 0 221 -17 275 -71c25 -25 38 -60 38 -91c0 -61 -40 -99 -123 -117v-2c97 -21 158 -87 158 -168c0 -102 -93 -188 -258 -188h-387v39c98 0 121 25 121 84zM269 330v-195
c0 -73 27 -90 91 -90c112 0 140 72 140 139c0 60 -28 149 -158 149c-19 0 -58 -2 -73 -3zM269 595v-222c22 -1 58 -2 77 -2c100 0 125 54 125 105c0 57 -28 122 -149 122c-21 0 -36 -1 -53 -3z" />
    <glyph glyph-name="C" unicode="C" horiz-adv-x="740" 
d="M662 179h40c-8 -53 -32 -130 -56 -182c-16 5 -36 7 -59 7c-47 0 -97 -18 -172 -18c-205 0 -364 142 -364 323c0 184 169 328 383 328c104 0 172 -41 192 -41c8 0 14 3 20 10h25l9 -175h-39c-32 99 -103 155 -199 155c-143 0 -242 -108 -242 -266
c0 -161 110 -285 253 -285c92 0 168 53 209 144z" />
    <glyph glyph-name="D" unicode="D" horiz-adv-x="823" 
d="M21 583v39c54 3 116 5 161 8c50 3 88 5 137 5c200 0 294 -25 368 -99c53 -53 84 -125 84 -210c0 -91 -40 -171 -93 -224c-51 -51 -134 -102 -339 -102h-318v39c66 0 93 13 93 70v386c0 71 -16 88 -93 88zM252 583v-467c0 -67 10 -76 87 -76c225 0 283 154 283 273
c0 83 -29 158 -74 203c-49 49 -116 72 -218 72c-27 0 -49 -1 -78 -5z" />
    <glyph glyph-name="E" unicode="E" horiz-adv-x="646" 
d="M543 477c-10 68 -23 90 -69 90h-219v-225h162c55 0 75 19 75 72h40v-199h-40c0 54 -13 72 -90 72h-147v-180c0 -43 8 -52 37 -52h167c65 0 96 18 115 102h38l-12 -157h-602v39h41c58 0 78 23 78 72v399c0 54 -18 73 -87 73h-10v39h551l10 -145h-38z" />
    <glyph glyph-name="F" unicode="F" horiz-adv-x="594" 
d="M251 567v-225h139c70 0 87 16 87 73h40v-199h-40c0 48 -16 71 -69 71h-157v-161c0 -72 13 -87 67 -87h19v-39h-299v39h16c43 0 59 14 59 57v405c0 64 -18 83 -62 83h-13v38h505v-141h-36c-4 66 -18 86 -63 86h-193z" />
    <glyph glyph-name="G" unicode="G" horiz-adv-x="781" 
d="M758 299v-38c-53 -1 -71 -17 -71 -63v-149c-72 -33 -175 -63 -261 -63c-253 0 -375 141 -375 333c0 183 151 318 364 318c103 0 183 -35 217 -35c15 0 23 4 30 13h25v-183h-40c-27 102 -103 162 -207 162c-142 0 -240 -112 -240 -274c0 -164 103 -286 242 -286
c38 0 80 10 107 26v138c0 50 -21 61 -123 63v38h332z" />
    <glyph glyph-name="H" unicode="H" horiz-adv-x="833" 
d="M492 39h14c53 0 75 23 75 77v178h-330v-180c0 -53 21 -75 77 -75h15v-39h-321v39h17c51 0 74 23 74 73v398c0 50 -22 73 -75 73h-16v39h321v-39h-14c-52 0 -78 -17 -78 -73v-157h330v154c0 56 -22 76 -80 76h-9v39h320v-39h-18c-51 0 -75 -19 -75 -73v-396
c0 -52 19 -75 77 -75h16v-39h-320v39z" />
    <glyph glyph-name="I" unicode="I" horiz-adv-x="365" 
d="M23 583v39h318v-39h-17c-54 0 -76 -23 -76 -75v-396c0 -49 17 -73 78 -73h15v-39h-318v39h14c53 0 73 25 73 69v400c0 52 -18 75 -74 75h-13z" />
    <glyph glyph-name="J" unicode="J" horiz-adv-x="344" 
d="M7 583v39h317v-39h-15c-38 0 -72 -11 -72 -75v-437c0 -99 -30 -179 -87 -236c-43 -43 -95 -62 -162 -62c-71 0 -108 20 -108 58c0 33 33 63 70 63c51 0 69 -60 100 -60c27 0 49 24 49 98v577c0 49 -18 74 -74 74h-18z" />
    <glyph glyph-name="K" unicode="K" horiz-adv-x="740" 
d="M253 290v-178c0 -56 26 -73 79 -73h14v-39h-326v39h18c51 0 77 17 77 75v393c0 53 -19 76 -78 76h-17v39h326v-39h-17c-65 0 -76 -25 -76 -80v-180c40 5 87 31 132 76c33 33 97 114 97 151c0 21 -18 33 -60 33h-11v39h267v-39c-60 -4 -82 -9 -109 -36
c-45 -45 -91 -141 -165 -197c29 -15 75 -67 106 -107l87 -111c51 -66 90 -93 152 -93v-39h-341v39c42 0 70 6 70 27s-92 125 -155 188c-32 32 -46 36 -70 36z" />
    <glyph glyph-name="L" unicode="L" horiz-adv-x="604" 
d="M622 174l-73 -174h-536v39h17c64 0 83 23 83 72v400c0 59 -34 72 -79 72h-19v39h339v-39h-29c-52 0 -74 -23 -74 -70v-412c0 -37 11 -46 50 -46h127c67 0 87 33 154 119h40z" />
    <glyph glyph-name="M" unicode="M" horiz-adv-x="927" 
d="M412 0l-228 494h-2l-22 -356c-4 -66 -3 -98 82 -99v-39h-222v39c78 1 80 23 85 106l22 362c3 51 0 73 -67 76v39h211l195 -420l187 420h215v-39c-72 -4 -77 -4 -72 -76l24 -369c5 -84 8 -93 88 -99v-39h-315v39h17c42 0 77 0 77 65c0 16 -1 32 -2 47l-23 355h-2
l-224 -506h-24z" />
    <glyph glyph-name="N" unicode="N" horiz-adv-x="813" 
d="M167 498v-378c0 -61 19 -81 99 -81v-39h-242v39h6c61 0 76 22 76 63v459c-22 15 -49 22 -80 22v39h206l408 -426v302c0 72 -15 85 -95 85h-10v39h258v-39h-10c-62 0 -82 -13 -82 -51v-535h-55z" />
    <glyph glyph-name="O" unicode="O" horiz-adv-x="844" 
d="M52 301c0 198 160 340 383 340c209 0 357 -131 357 -318c0 -178 -137 -337 -376 -337c-230 0 -364 147 -364 315zM201 349c0 -191 97 -320 238 -320c139 0 204 120 204 258c0 161 -80 311 -232 311c-127 0 -210 -98 -210 -249z" />
    <glyph glyph-name="P" unicode="P" horiz-adv-x="646" 
d="M252 262v-148c0 -58 22 -75 87 -75h30v-39h-340v39h15c55 0 70 12 70 57v429c0 46 -15 58 -70 58h-22v39c39 2 93 8 162 11c66 3 131 5 159 5c193 0 275 -93 275 -196c0 -116 -98 -190 -252 -190c-36 0 -72 3 -114 10zM252 587v-284c21 -5 43 -7 72 -7
c93 0 145 54 145 152c0 92 -54 146 -146 146c-24 0 -47 -2 -71 -7z" />
    <glyph glyph-name="Q" unicode="Q" horiz-adv-x="844" 
d="M805 -182l-17 -39c-21 -5 -31 -6 -56 -6c-209 0 -316 189 -438 230c-147 38 -242 156 -242 301c0 195 162 337 383 337c209 0 357 -131 357 -317c0 -171 -128 -294 -270 -324c112 -68 156 -180 283 -182zM201 349c0 -191 96 -321 237 -321c148 0 205 132 205 262
c0 131 -66 308 -233 308c-127 0 -209 -98 -209 -249z" />
    <glyph glyph-name="R" unicode="R" horiz-adv-x="771" 
d="M251 264v-152c0 -51 22 -73 79 -73h30v-39h-350v39h16c61 0 87 15 87 73v395c0 48 -13 76 -80 76h-21v39c50 3 88 5 129 8c56 4 128 7 164 7c147 0 227 -19 277 -69c33 -33 48 -71 48 -114c0 -76 -55 -136 -148 -161c66 -55 101 -134 172 -205c41 -41 69 -53 132 -59v-39
c-22 -1 -32 -1 -62 -1c-124 0 -175 18 -222 65c-50 50 -108 155 -172 210h-79zM251 594v-288h39c121 0 191 37 191 144c0 106 -81 144 -178 144h-52z" />
    <glyph glyph-name="S" unicode="S" horiz-adv-x="563" 
d="M83 2l-25 182h39c33 -99 92 -150 171 -150c66 0 116 42 116 98c0 149 -321 144 -321 342c0 96 84 163 203 163c77 0 137 -26 152 -26c7 0 13 2 22 11h21l19 -162h-40c-22 81 -86 134 -163 134c-56 0 -98 -30 -98 -69c0 -92 166 -109 278 -221c41 -41 57 -84 57 -132
c0 -104 -94 -186 -213 -186c-80 0 -153 32 -171 32c-9 0 -16 -5 -21 -16h-26z" />
    <glyph glyph-name="T" unicode="T" horiz-adv-x="729" 
d="M433 570v-456c0 -52 16 -75 87 -75h24v-39h-360v39h34c55 0 77 22 77 75v456h-118c-77 0 -89 -12 -108 -118h-41l18 187h32c8 -7 13 -12 19 -14c7 -2 15 -3 29 -3h476c27 0 32 2 48 17h32l18 -187h-41c-19 105 -31 118 -108 118h-118z" />
    <glyph glyph-name="U" unicode="U" horiz-adv-x="771" 
d="M507 583v39h259v-39h-7c-80 0 -92 -35 -92 -83v-249c0 -223 -162 -265 -281 -265c-180 0 -294 78 -294 231v298c0 50 -14 68 -70 68h-17v39h313v-39h-17c-42 0 -71 -19 -71 -68v-298c0 -122 90 -164 181 -164c131 0 196 74 196 184v243c0 71 -20 103 -82 103h-18z" />
    <glyph glyph-name="V" unicode="V" horiz-adv-x="750" 
d="M352 -14l-236 513c-33 72 -47 84 -104 84h-7v39h347v-39h-17c-84 0 -97 -28 -69 -87l157 -334l153 364c14 34 -9 57 -66 57h-20v39h254v-39h-7c-59 0 -81 -27 -114 -106l-208 -491h-63z" />
    <glyph glyph-name="W" unicode="W" horiz-adv-x="1000" 
d="M352 -14l-244 513c-30 64 -41 84 -94 84h-8v39h265v-39c-41 -4 -45 -22 -26 -61l185 -386l64 131l-118 248c-26 54 -39 67 -68 68v39h438v-39c-38 -8 -50 -20 -76 -73l-73 -148l105 -213l138 350c22 55 12 83 -48 84v39h202v-39c-48 -3 -71 -24 -97 -90l-202 -507h-65
l-107 220l-104 -220h-67zM567 424l57 113c16 31 14 46 -31 46h-54c-40 0 -44 -14 -29 -44z" />
    <glyph glyph-name="X" unicode="X" horiz-adv-x="802" 
d="M370 251l-154 -158c-32 -32 -15 -54 45 -54h22v-39h-274v39c69 7 105 32 167 95l157 162l-150 188c-61 76 -94 99 -144 99h-24v39h379v-39h-36c-57 0 -63 -21 -31 -60l102 -127l101 106c45 48 54 81 -12 81h-26v39h270v-39c-62 0 -97 -23 -152 -81l-143 -152l179 -223
c53 -66 84 -85 147 -88v-39h-350v39h20c44 0 69 21 29 68z" />
    <glyph glyph-name="Y" unicode="Y" horiz-adv-x="750" 
d="M459 250v-137c0 -48 15 -74 87 -74h15v-39h-341v39h25c60 0 76 27 76 72v139l-215 286c-29 38 -41 47 -91 47h-7v39h326v-39h-12c-58 0 -66 -24 -45 -51l160 -211l116 182c26 41 34 80 -36 80h-12v39h236v-39c-58 -4 -75 -15 -111 -70z" />
    <glyph glyph-name="Z" unicode="Z" horiz-adv-x="750" 
d="M703 200l-12 -200h-633v55l444 512h-269c-58 0 -89 -27 -96 -113h-38l7 168h578v-57l-444 -510h306c73 0 92 32 119 145h38z" />
    <glyph glyph-name="bracketleft" unicode="[" horiz-adv-x="365" 
d="M228 545v-655c0 -32 17 -44 100 -44h27v-33h-240v809h240v-33h-27c-83 0 -100 -12 -100 -44z" />
    <glyph glyph-name="backslash" unicode="\" horiz-adv-x="531" 
d="M127 641l357 -659h-81l-357 659h81z" />
    <glyph glyph-name="bracketright" unicode="]" horiz-adv-x="365" 
d="M137 -110v655c0 32 -17 44 -100 44h-27v33h240v-809h-240v33h27c83 0 100 12 100 44z" />
    <glyph glyph-name="asciicircum" unicode="^" horiz-adv-x="583" 
d="M72 318l199 351h40l199 -351h-83l-136 241l-136 -241h-83z" />
    <glyph glyph-name="underscore" unicode="_" horiz-adv-x="500" 
d="M508 -125h-516v50h516v-50z" />
    <glyph glyph-name="quoteleft" unicode="&#x2018;" 
d="M228 641l8 -42c-64 -5 -110 -39 -110 -83c0 -24 23 -12 48 -12c48 0 75 -26 75 -66s-31 -67 -77 -67c-66 0 -108 45 -108 115c0 91 69 157 164 155z" />
    <glyph glyph-name="a" unicode="a" horiz-adv-x="479" 
d="M446 74l15 -24c-31 -34 -81 -60 -114 -60c-37 0 -64 24 -70 62c-40 -39 -67 -63 -123 -63c-71 0 -116 41 -116 105c0 32 14 63 31 80c47 47 128 37 206 101v37c0 39 -27 67 -63 67c-35 0 -60 -25 -52 -77l-112 -39c-9 41 -5 70 21 96c34 34 116 60 165 60
s163 -28 163 -122v-189c0 -35 7 -46 22 -46c8 0 13 2 27 12zM275 87v143c-48 -42 -117 -35 -117 -116c0 -42 20 -69 50 -69c17 0 38 14 67 42z" />
    <glyph glyph-name="b" unicode="b" horiz-adv-x="573" 
d="M78 21v502c0 43 -4 49 -36 62l-26 11v24l152 49h32v-334c58 54 114 84 167 84c90 0 161 -85 161 -192c0 -136 -108 -238 -251 -238c-63 0 -145 18 -199 32zM200 288v-120c0 -95 27 -136 90 -136c71 0 113 56 113 151c0 93 -47 157 -115 157c-30 0 -65 -21 -88 -52z" />
    <glyph glyph-name="c" unicode="c" horiz-adv-x="490" 
d="M429 112l29 -16c-46 -70 -116 -107 -204 -107c-122 0 -210 83 -210 198c0 131 113 232 259 232c86 0 151 -36 151 -85c0 -30 -20 -50 -51 -50c-70 0 -85 89 -143 89c-50 0 -84 -61 -84 -151c0 -108 51 -181 125 -181c45 0 87 23 128 71z" />
    <glyph glyph-name="d" unicode="d" horiz-adv-x="573" 
d="M366 -11v80c-62 -55 -112 -80 -161 -80c-94 0 -162 79 -162 189c0 112 69 241 233 241c32 0 60 -4 90 -13v128c0 37 -17 50 -67 61v24l155 50h34v-537c0 -59 8 -74 40 -74c9 0 20 2 30 5v-31l-166 -43h-26zM366 114v222c-37 33 -60 43 -96 43c-66 0 -106 -55 -106 -148
c0 -100 45 -167 112 -167c28 0 66 21 90 50z" />
    <glyph glyph-name="e" unicode="e" horiz-adv-x="479" 
d="M416 135l23 -19c-56 -79 -137 -127 -214 -127c-109 0 -183 84 -183 205c0 132 89 225 214 225c53 0 95 -17 126 -48c59 -59 31 -115 66 -133v-29h-277c8 -83 64 -146 123 -146c37 0 73 21 122 72zM168 248h142c-1 77 -28 124 -71 124c-41 0 -78 -53 -71 -124z" />
    <glyph glyph-name="f" unicode="f" horiz-adv-x="323" 
d="M205 356v-245c0 -60 21 -79 86 -79h21v-32h-303v32h18c41 0 56 18 56 70v254h-74v20l75 32c0 180 161 264 259 264c68 0 130 -36 130 -62c0 -5 -1 -7 -8 -16l-31 -40c-8 -10 -14 -13 -21 -13c-29 0 -70 74 -129 74c-36 0 -79 -22 -79 -108v-99h99l-6 -52h-93z" />
    <glyph glyph-name="g" unicode="g" horiz-adv-x="552" 
d="M538 415v-103l-100 23c14 -19 20 -39 20 -64c0 -100 -111 -142 -211 -139c-54 -18 -83 -31 -83 -47c0 -22 40 -33 124 -33h88c84 0 152 -41 152 -116c0 -95 -121 -167 -282 -167c-117 0 -205 43 -205 100c0 64 76 55 98 95c-54 18 -86 52 -86 94c0 43 43 59 136 84v2
c-69 3 -131 61 -131 122c0 87 89 153 204 153c54 0 99 -13 135 -40zM355 -54h-80c-33 0 -62 2 -89 8c-24 -17 -39 -39 -39 -56c0 -47 68 -86 148 -86c82 0 143 36 143 84c0 34 -28 50 -83 50zM181 281c0 -72 29 -110 83 -110c45 0 70 32 70 88c0 74 -29 117 -79 117
c-46 0 -74 -35 -74 -95z" />
    <glyph glyph-name="h" unicode="h" horiz-adv-x="563" 
d="M200 306v-205c0 -63 17 -69 52 -69h10v-32h-253v32h14c51 0 55 20 55 73v437c0 29 -5 36 -32 45l-29 10v23l159 49h24v-326c56 39 128 76 180 76c73 0 109 -59 109 -177v-132c0 -59 7 -78 45 -78h10v-32h-236v32h8c42 0 51 16 51 73v151c0 54 -25 88 -65 88
c-27 0 -67 -15 -102 -38z" />
    <glyph glyph-name="i" unicode="i" horiz-adv-x="292" 
d="M265 32v-32h-250v32h11c41 0 56 18 56 70v192c0 26 -6 33 -34 43l-33 12v24l171 57h18v-335c0 -41 17 -63 61 -63zM139 657c46 0 79 -30 79 -68c0 -40 -38 -68 -79 -68c-46 0 -80 29 -80 68c0 36 38 68 80 68z" />
    <glyph glyph-name="j" unicode="j" horiz-adv-x="281" 
d="M205 430v-425c0 -117 -67 -234 -218 -234c-65 0 -103 22 -103 59c0 31 31 60 63 60c51 0 64 -67 96 -67c23 0 40 33 40 90v379c0 30 -2 34 -33 45l-34 12v24l169 57h20zM141 657c46 0 79 -30 79 -68c0 -40 -38 -68 -79 -68c-46 0 -80 29 -80 68c0 36 38 68 80 68z" />
    <glyph glyph-name="k" unicode="k" horiz-adv-x="542" 
d="M310 268l145 -181c33 -41 52 -55 77 -55h9v-32h-231v32c30 0 29 13 14 32l-124 161h-2v-126c0 -43 12 -67 59 -67v-32h-242v32c46 0 61 16 61 70v440c0 29 -5 36 -32 45l-29 10v23l159 49h24v-435l140 117c11 10 13 25 -17 25h-24v32h207v-32c-50 0 -86 -17 -131 -55z
" />
    <glyph glyph-name="l" unicode="l" horiz-adv-x="271" 
d="M195 669v-567c0 -47 14 -70 60 -70v-32h-248v32h10c42 0 56 19 56 70v412c0 44 -3 52 -26 60l-43 16v29l173 50h18z" />
    <glyph glyph-name="m" unicode="m" horiz-adv-x="927" 
d="M528 280v-181c0 -47 19 -67 56 -67v-32h-235v32c43 0 57 18 57 70v143c0 66 -20 98 -61 98c-36 0 -76 -18 -141 -63v-184c0 -45 20 -64 59 -64h8v-32h-252v32h6c42 0 57 18 57 70v195c0 22 -10 31 -43 43l-22 8v24l169 58h18v-115c107 76 165 104 216 104
c57 0 96 -38 104 -104c71 52 161 104 223 104c73 0 105 -52 105 -172v-156c0 -49 17 -59 56 -59v-32h-235v32c41 3 57 31 57 113v87c0 80 -22 111 -62 111c-31 0 -72 -17 -140 -63z" />
    <glyph glyph-name="n" unicode="n" horiz-adv-x="573" 
d="M495 247v-156c0 -49 18 -59 57 -59v-32h-236v32c41 3 57 31 57 113v87c0 80 -22 111 -62 111c-31 0 -64 -15 -106 -44v-203c0 -45 19 -64 59 -64h9v-32h-253v32h6c42 0 57 18 57 70v195c0 22 -12 35 -47 45l-21 6v24l171 58h19v-89c73 48 137 78 185 78
c73 0 105 -52 105 -172z" />
    <glyph glyph-name="o" unicode="o" horiz-adv-x="573" 
d="M43 198c0 126 108 221 251 221c137 0 236 -87 236 -208c0 -127 -108 -222 -251 -222c-138 0 -236 87 -236 209zM175 257c0 -84 36 -225 132 -225c58 0 91 45 91 124c0 128 -54 220 -130 220c-59 0 -93 -44 -93 -119z" />
    <glyph glyph-name="p" unicode="p" horiz-adv-x="573" 
d="M201 2v-107c0 -66 17 -86 99 -91v-31h-287v31h12c39 0 54 18 54 66v420c0 28 -8 41 -27 48l-37 13v25l160 54h26v-96c57 45 101 85 167 85c92 0 163 -82 163 -189c0 -111 -75 -241 -228 -241c-31 0 -62 4 -102 13zM201 293v-218c29 -30 68 -49 103 -49
c61 0 104 60 104 147c0 89 -37 171 -109 171c-28 0 -59 -16 -98 -51z" />
    <glyph glyph-name="q" unicode="q" horiz-adv-x="573" 
d="M371 -125v199c-59 -56 -109 -85 -163 -85c-93 0 -164 82 -164 190c0 136 106 240 244 240c51 0 104 -15 147 -40l43 40h24c-5 -36 -9 -83 -9 -122v-425c0 -43 9 -64 60 -68v-31h-283v31h39c50 0 62 19 62 71zM371 118v140c0 75 -31 118 -87 118c-71 0 -115 -59 -115 -154
c0 -90 47 -154 113 -154c32 0 53 11 89 50z" />
    <glyph glyph-name="r" unicode="r" horiz-adv-x="396" 
d="M300 32v-32h-278v32h7c41 0 56 18 56 70v163c0 45 -6 55 -36 67l-27 11v25l164 62h21v-112h2c37 72 53 101 87 101c7 0 15 -1 20 -3l79 -29c-12 -42 -28 -78 -48 -106c-31 12 -68 25 -81 25c-20 0 -37 -14 -59 -45v-162c0 -48 15 -67 67 -67h26z" />
    <glyph glyph-name="s" unicode="s" horiz-adv-x="375" 
d="M53 -9l-11 127h32c17 -56 61 -86 104 -86c28 0 52 21 52 46c0 69 -188 93 -188 214c0 76 63 127 157 127c38 0 70 -6 112 -21l2 -107h-32c-18 55 -51 85 -94 85c-26 0 -46 -16 -46 -38c0 -82 197 -85 197 -222c0 -74 -53 -126 -130 -126c-69 0 -92 14 -106 14
c-6 0 -12 -4 -20 -13h-29z" />
    <glyph glyph-name="t" unicode="t" horiz-adv-x="344" 
d="M199 353v-242c0 -37 17 -53 46 -53c24 0 47 15 76 50l14 -28c-30 -54 -90 -91 -145 -91c-68 0 -113 38 -113 124v240h-53v26c60 25 128 98 146 154h29v-125h131l-15 -55h-116z" />
    <glyph glyph-name="u" unicode="u" horiz-adv-x="573" 
d="M363 -11v80c-91 -58 -141 -80 -179 -80c-73 0 -109 65 -109 137v167c0 39 -4 48 -21 56l-21 10v23l144 37h20v-255c0 -60 20 -99 65 -99c24 0 59 14 101 41v181c0 39 -6 49 -36 58l-46 14v23l184 37h20v-306c0 -50 5 -60 29 -60c9 0 17 1 30 6v-31l-162 -39h-19z" />
    <glyph glyph-name="v" unicode="v" horiz-adv-x="521" 
d="M4 376v32h254v-32h-35c-21 0 -30 -19 -13 -56l89 -199l78 176c23 52 11 72 -59 79v32h199v-32c-52 -5 -65 -18 -84 -60l-143 -323h-60l-149 321c-19 41 -33 57 -77 62z" />
    <glyph glyph-name="w" unicode="w" horiz-adv-x="781" 
d="M220 -7l-138 322c-17 39 -41 61 -78 61v32h239v-32c-35 -2 -46 -25 -34 -53l80 -191l80 182c-17 45 -34 62 -63 62v32h227v-32c-40 0 -54 -18 -37 -60l76 -184l70 171c18 45 0 71 -50 73v32h184v-32c-50 -5 -65 -26 -90 -85l-126 -298h-55l-112 261l-120 -261h-53z" />
    <glyph glyph-name="x" unicode="x" horiz-adv-x="531" 
d="M232 151l-53 -56c-40 -43 -28 -63 15 -63v-32h-177v32c25 0 56 17 85 46l103 106l-115 138c-32 40 -49 51 -81 54v32h245v-32c-30 0 -44 -11 -26 -33l61 -75l55 59c27 28 11 49 -30 49v32h187v-32c-41 -5 -76 -26 -119 -71l-68 -71l128 -157c22 -27 51 -45 75 -45h6v-32
h-258v32h9c34 0 39 19 19 43z" />
    <glyph glyph-name="y" unicode="y" horiz-adv-x="521" 
d="M231 10l-135 275c-35 72 -52 91 -95 91v32h255v-32c-52 0 -60 -20 -41 -60l83 -172l76 154c21 43 8 77 -52 78v32h186v-32c-45 -10 -58 -22 -86 -79l-224 -456c-25 -50 -56 -74 -91 -74c-36 0 -63 24 -63 57c0 16 6 33 15 42c46 46 99 -16 152 100z" />
    <glyph glyph-name="z" unicode="z" horiz-adv-x="510" 
d="M30 0v32l264 321h-139c-39 0 -55 -15 -86 -85h-33l33 168h33c-4 -17 1 -28 33 -28h334v-28l-267 -325h129c69 0 78 11 127 84h31l-47 -139h-412z" />
    <glyph glyph-name="braceleft" unicode="{" horiz-adv-x="396" 
d="M63 233c64 6 96 61 96 109c0 31 -7 59 -13 86c-7 26 -13 52 -13 79c0 60 53 162 201 162v-23c-71 -10 -95 -60 -95 -94c0 -29 5 -55 11 -83c6 -27 12 -55 12 -86c0 -76 -63 -142 -159 -163v-2c96 -21 159 -87 159 -163c0 -31 -6 -58 -12 -86c-6 -27 -11 -54 -11 -83
c0 -34 24 -84 95 -94v-23c-148 0 -201 102 -201 162c0 28 6 54 13 80c6 27 13 54 13 85c0 48 -32 103 -96 109v28z" />
    <glyph glyph-name="bar" unicode="|" horiz-adv-x="566" 
d="M244 641h78v-776h-78v776z" />
    <glyph glyph-name="braceright" unicode="}" horiz-adv-x="396" 
d="M333 205c-64 -6 -96 -61 -96 -109c0 -62 26 -110 26 -165c0 -60 -53 -162 -201 -162v23c71 10 95 60 95 94c0 29 -6 56 -11 83c-6 27 -12 55 -12 86c0 76 63 142 159 163v2c-96 21 -159 87 -159 163c0 62 23 111 23 169c0 34 -24 84 -95 94v23c148 0 201 -102 201 -162
c0 -27 -6 -53 -13 -80c-6 -26 -13 -54 -13 -85c0 -48 32 -103 96 -109v-28z" />
    <glyph glyph-name="asciitilde" unicode="~" horiz-adv-x="521" 
d="M498 400h39c-4 -134 -67 -177 -154 -177c-54 0 -102 21 -153 42c-48 20 -90 42 -127 42c-54 0 -71 -31 -79 -84h-39c4 134 64 177 150 177c50 0 106 -20 157 -38s97 -38 126 -38c56 0 75 21 80 76z" />
    <glyph glyph-name="exclamdown" unicode="&#xa1;" 
d="M157 280c-46 0 -81 29 -81 67c0 37 33 68 81 68s80 -31 80 -68c0 -39 -37 -67 -80 -67zM140 180h34l56 -372c5 -35 1 -41 -28 -41h-90c-32 0 -34 7 -29 41z" />
    <glyph glyph-name="cent" unicode="&#xa2;" horiz-adv-x="490" 
d="M206 -6l-64 -162h-41l68 172c-79 31 -125 98 -125 183c0 131 120 247 291 230l47 118h41l-50 -126c51 -13 81 -41 81 -75c0 -30 -20 -50 -50 -50c-25 0 -45 10 -68 35l-101 -253c18 -16 43 -25 68 -25c43 0 86 24 126 71l29 -16c-58 -86 -149 -120 -252 -102zM206 99
l102 250c-18 17 -32 24 -48 24c-49 0 -84 -61 -84 -150c0 -49 11 -94 30 -124z" />
    <glyph glyph-name="sterling" unicode="&#xa3;" horiz-adv-x="833" 
d="M537 97h-200c-26 -42 -63 -92 -101 -130l2 -2c37 12 68 17 92 17c145 0 221 -153 299 -153c40 0 64 28 64 56c0 45 -32 62 -32 105c0 28 19 47 48 47c38 0 63 -34 63 -86c0 -109 -111 -178 -195 -178c-167 0 -221 153 -316 153c-21 0 -33 -5 -69 -18
c-34 -77 -78 -135 -122 -135c-20 0 -35 17 -35 39c0 38 38 79 113 121c24 46 56 115 76 164h-146l13 38h149l81 173c79 168 187 354 339 354c76 0 141 -39 141 -77c0 -28 -29 -64 -54 -64c-45 0 -69 98 -117 98c-82 0 -107 -206 -266 -484h185z" />
    <glyph glyph-name="fraction" unicode="&#x2044;" horiz-adv-x="208" 
d="M-154 -28l445 665h71l-446 -665h-70z" />
    <glyph glyph-name="yen" unicode="&#xa5;" horiz-adv-x="500" 
d="M189 470h212l21 33c24 37 34 80 -36 80h-12v39h236v-39c-58 -4 -77 -18 -111 -70l-28 -43h111v-39h-136l-93 -142h229v-39h-254v-137c0 -48 15 -74 87 -74h15v-39h-333v39h25c60 0 76 27 76 72v139h-280v39h254l-106 142h-148v39h119l-49 66c-28 38 -41 47 -91 47h-7v39
h321v-39h-12c-57 0 -78 -23 -55 -53zM375 431h-157l83 -114z" />
    <glyph glyph-name="florin" unicode="&#x192;" horiz-adv-x="500" 
d="M290 363l-55 -329c-13 -75 -37 -141 -99 -203c-40 -40 -89 -64 -157 -64c-61 0 -104 25 -104 61c0 26 27 50 57 50c61 0 59 -75 106 -75c36 0 59 42 70 109l75 451h-75l5 24c24 0 60 10 79 22c21 140 103 263 240 263c60 0 94 -21 94 -57c0 -29 -24 -52 -54 -52
c-56 0 -77 69 -111 69c-24 0 -32 -37 -46 -124l-16 -99h72l-10 -46h-71z" />
    <glyph glyph-name="section" unicode="&#xa7;" horiz-adv-x="469" 
d="M183 570c0 -88 241 -316 241 -514c0 -125 -114 -232 -247 -232c-55 0 -114 37 -114 73c0 26 22 48 47 48c45 0 65 -71 121 -71c28 0 49 20 49 47c0 101 -235 303 -235 496c0 146 119 245 232 245c66 0 129 -33 129 -69c0 -26 -23 -52 -46 -52c-43 0 -78 74 -129 74
c-26 0 -48 -21 -48 -45zM321 -80h2c29 32 47 75 47 118c0 149 -215 353 -230 514c-27 -25 -41 -62 -41 -105c0 -161 239 -380 222 -527z" />
    <glyph glyph-name="currency" unicode="&#xa4;" horiz-adv-x="667" 
d="M464 507l62 63l51 -52l-62 -63c30 -44 42 -82 42 -130s-12 -85 -42 -129l62 -62l-51 -52l-62 62c-45 -30 -81 -42 -129 -42c-49 0 -87 13 -131 42l-63 -62l-52 52l63 62c-30 44 -42 81 -42 130c0 48 12 85 42 130l-63 62l52 52l63 -63c46 30 82 42 129 42
c49 0 85 -12 131 -42zM183 326c0 -83 68 -151 151 -151c82 0 150 68 150 151c0 82 -68 150 -150 150c-83 0 -151 -68 -151 -150z" />
    <glyph glyph-name="quotesingle" unicode="'" horiz-adv-x="281" 
d="M129 312l-50 187c-6 23 -10 46 -10 63c0 43 31 75 72 75s72 -32 72 -75c0 -17 -4 -40 -10 -63l-50 -187h-24z" />
    <glyph glyph-name="quotedblleft" unicode="&#x201c;" horiz-adv-x="583" 
d="M501 641l8 -42c-64 -5 -110 -39 -110 -83c0 -24 23 -12 48 -12c48 0 75 -26 75 -66s-31 -67 -77 -67c-66 0 -108 45 -108 115c0 91 69 157 164 155zM225 641l8 -42c-64 -5 -110 -39 -110 -83c0 -24 23 -12 48 -12c48 0 75 -26 75 -66s-31 -67 -77 -67
c-66 0 -108 45 -108 115c0 91 69 157 164 155z" />
    <glyph glyph-name="guillemotleft" unicode="&#xab;" horiz-adv-x="427" 
d="M335 220l63 -172h-33l-136 172l136 172h33zM143 220l81 -185h-33l-168 185l168 185h33z" />
    <glyph glyph-name="guilsinglleft" unicode="&#x2039;" horiz-adv-x="250" 
d="M141 220l81 -185h-33l-168 185l168 185h33z" />
    <glyph glyph-name="guilsinglright" unicode="&#x203a;" horiz-adv-x="250" 
d="M109 220l-81 185h33l168 -185l-168 -185h-33z" />
    <glyph glyph-name="endash" unicode="&#x2013;" horiz-adv-x="500" 
d="M-6 295h512v-90h-512v90z" />
    <glyph glyph-name="dagger" unicode="&#x2020;" horiz-adv-x="469" 
d="M173 586c-6 31 4 44 34 44h55c37 0 38 -22 32 -53l-42 -201l139 40c38 11 49 -5 49 -39v-42c0 -36 -15 -46 -52 -35l-134 40l51 -460c5 -41 -4 -57 -44 -57h-57c-36 0 -46 20 -41 60l52 457l-134 -41c-36 -11 -52 4 -52 35v46c0 31 13 46 44 37l142 -41z" />
    <glyph glyph-name="daggerdbl" unicode="&#x2021;" horiz-adv-x="479" 
d="M209 630h61c29 0 40 -15 33 -43l-44 -179l121 35c36 10 65 6 65 -27v-52c0 -35 -24 -40 -59 -30l-127 37l30 -144l-30 -144l120 35c39 11 66 8 66 -25v-55c0 -33 -23 -40 -56 -30l-130 38l44 -178c7 -28 0 -45 -33 -45h-60c-27 0 -42 13 -35 43l45 180l-129 -38
c-29 -9 -57 -3 -57 30v53c0 31 24 40 57 30l129 -38l-30 144l30 144l-133 -39c-28 -8 -53 -1 -53 27v60c0 28 25 35 57 26l129 -37l-45 183c-6 26 6 39 34 39z" />
    <glyph glyph-name="periodcentered" unicode="&#xb7;" 
d="M156 379c46 0 81 -29 81 -67c0 -37 -33 -68 -81 -68s-80 31 -80 68c0 39 37 67 80 67z" />
    <glyph glyph-name="paragraph" unicode="&#xb6;" horiz-adv-x="542" 
d="M312 584v-817h-49v402c-190 0 -263 110 -263 228c0 62 20 120 59 159c50 50 101 66 230 66h252v-22h-21c-46 0 -71 -19 -71 -68v-765h-49v817h-88z" />
    <glyph glyph-name="bullet" unicode="&#x2022;" horiz-adv-x="354" 
d="M177 450c77 0 140 -62 140 -139s-63 -140 -140 -140s-139 63 -139 140s62 139 139 139z" />
    <glyph glyph-name="quotesinglbase" unicode="&#x201a;" 
d="M85 -146l-8 42c64 5 110 39 110 83c0 24 -23 12 -48 12c-48 0 -75 26 -75 66s31 67 77 67c66 0 108 -45 108 -115c0 -91 -69 -157 -164 -155z" />
    <glyph glyph-name="quotedblbase" unicode="&#x201e;" horiz-adv-x="583" 
d="M358 -146l-8 42c64 5 110 39 110 83c0 24 -23 12 -48 12c-48 0 -75 26 -75 66s31 67 77 67c66 0 108 -45 108 -115c0 -91 -69 -157 -164 -155zM82 -146l-8 42c64 5 110 39 110 83c0 24 -23 12 -48 12c-48 0 -75 26 -75 66s31 67 77 67c66 0 108 -45 108 -115
c0 -91 -69 -157 -164 -155z" />
    <glyph glyph-name="quotedblright" unicode="&#x201d;" horiz-adv-x="583" 
d="M358 371l-8 42c64 5 110 39 110 83c0 24 -23 12 -48 12c-48 0 -75 26 -75 66s31 67 77 67c66 0 108 -45 108 -115c0 -91 -69 -157 -164 -155zM82 371l-8 42c64 5 110 39 110 83c0 24 -23 12 -48 12c-48 0 -75 26 -75 66s31 67 77 67c66 0 108 -45 108 -115
c0 -91 -69 -157 -164 -155z" />
    <glyph glyph-name="guillemotright" unicode="&#xbb;" horiz-adv-x="427" 
d="M92 220l-63 172h33l136 -172l-136 -172h-33zM284 220l-81 185h33l168 -185l-168 -185h-33z" />
    <glyph glyph-name="ellipsis" unicode="&#x2026;" horiz-adv-x="1000" 
d="M834 124c46 0 81 -29 81 -67c0 -37 -33 -68 -81 -68s-80 31 -80 68c0 39 37 67 80 67zM500 124c46 0 81 -29 81 -67c0 -37 -33 -68 -81 -68s-80 31 -80 68c0 39 37 67 80 67zM166 124c46 0 81 -29 81 -67c0 -37 -33 -68 -81 -68s-80 31 -80 68c0 39 37 67 80 67z" />
    <glyph glyph-name="perthousand" unicode="&#x2030;" horiz-adv-x="1021" 
d="M866 -8c-74 0 -128 70 -128 168c0 102 52 171 128 171c77 0 129 -69 129 -171c0 -98 -54 -168 -129 -168zM825 236v-146c0 -36 6 -72 41 -72c38 0 42 36 42 72v146c0 33 -6 70 -42 70c-33 0 -41 -37 -41 -70zM559 -8c-74 0 -128 70 -128 168c0 102 52 171 128 171
c77 0 129 -69 129 -171c0 -98 -54 -168 -129 -168zM518 236v-146c0 -36 6 -72 41 -72c38 0 42 36 42 72v146c0 33 -6 70 -42 70c-33 0 -41 -37 -41 -70zM154 298c-74 0 -128 70 -128 168c0 102 52 171 128 171c77 0 129 -69 129 -171c0 -98 -54 -168 -129 -168zM113 542
v-146c0 -36 6 -72 41 -72c38 0 42 36 42 72v146c0 33 -6 70 -42 70c-33 0 -41 -37 -41 -70zM97 -28l445 666h71l-445 -666h-71z" />
    <glyph glyph-name="questiondown" unicode="&#xbf;" horiz-adv-x="365" 
d="M215 219h35c28 -47 42 -85 42 -114c0 -119 -210 -64 -210 -171c0 -37 27 -64 65 -64c42 0 69 17 112 17c38 0 61 -20 61 -53c0 -41 -39 -67 -98 -67c-110 0 -188 84 -188 203c0 188 198 151 198 200c0 13 -3 22 -17 49zM221 280c-46 0 -81 29 -81 67c0 37 33 68 81 68
s80 -31 80 -68c0 -39 -37 -67 -80 -67z" />
    <glyph glyph-name="grave" unicode="`" horiz-adv-x="333" 
d="M242 477h-58l-177 189h161z" />
    <glyph glyph-name="acute" unicode="&#xb4;" horiz-adv-x="333" 
d="M87 477l74 189h161l-177 -189h-58z" />
    <glyph glyph-name="circumflex" unicode="&#x2c6;" horiz-adv-x="333" 
d="M166 583l-75 -106h-80l80 189h148l84 -189h-78z" />
    <glyph glyph-name="tilde" unicode="&#x2dc;" horiz-adv-x="333" 
d="M46 501h-63c0 87 45 147 110 147c57 0 109 -51 146 -51c22 0 39 18 47 50h64c-4 -83 -50 -145 -109 -145c-57 0 -112 50 -148 50c-24 0 -38 -15 -47 -51z" />
    <glyph glyph-name="macron" unicode="&#xaf;" horiz-adv-x="333" 
d="M6 524v80h321v-80h-321z" />
    <glyph glyph-name="breve" unicode="&#x2d8;" horiz-adv-x="333" 
d="M33 654h38c14 -61 42 -85 97 -85c54 0 81 24 93 85h38c5 -105 -54 -168 -133 -168c-85 0 -131 59 -133 168z" />
    <glyph glyph-name="dotaccent" unicode="&#x2d9;" horiz-adv-x="333" 
d="M167 619c33 0 60 -27 60 -60s-27 -60 -60 -60s-60 27 -60 60s27 60 60 60z" />
    <glyph glyph-name="dieresis" unicode="&#xa8;" horiz-adv-x="333" 
d="M264 619c33 0 60 -27 60 -60s-27 -60 -60 -60s-60 27 -60 60s27 60 60 60zM70 619c33 0 60 -27 60 -60s-27 -60 -60 -60s-60 27 -60 60s27 60 60 60z" />
    <glyph glyph-name="ring" unicode="&#x2da;" horiz-adv-x="333" 
d="M167 663c54 0 97 -43 97 -97s-43 -97 -97 -97s-97 43 -97 97s43 97 97 97zM167 628c-34 0 -62 -28 -62 -62s28 -62 62 -62s62 28 62 62s-28 62 -62 62z" />
    <glyph glyph-name="cedilla" unicode="&#xb8;" horiz-adv-x="333" 
d="M110 -83l63 88h34l-22 -38c38 -10 61 -39 61 -79c0 -54 -43 -93 -101 -93c-31 0 -62 8 -87 24l9 30c14 -6 38 -11 56 -11c24 0 44 18 44 40c0 25 -16 35 -57 39z" />
    <glyph glyph-name="hungarumlaut" unicode="&#x2dd;" horiz-adv-x="333" 
d="M204 477l74 189h161l-177 -189h-58zM28 477l74 189h161l-177 -189h-58z" />
    <glyph glyph-name="ogonek" unicode="&#x2db;" horiz-adv-x="333" 
d="M182 6h28c-11 -28 -14 -41 -14 -58c0 -58 49 -101 114 -101c21 0 36 3 65 14l12 -16c-53 -35 -82 -45 -125 -45c-73 0 -124 44 -124 107c0 36 14 67 44 99z" />
    <glyph glyph-name="caron" unicode="&#x2c7;" horiz-adv-x="333" 
d="M167 560l75 106h80l-80 -189h-148l-84 189h78z" />
    <glyph glyph-name="emdash" unicode="&#x2014;" horiz-adv-x="1000" 
d="M-6 295h1012v-90h-1012v90z" />
    <glyph glyph-name="AE" unicode="&#xc6;" horiz-adv-x="896" 
d="M545 284v-177c0 -43 8 -52 37 -52h127c65 0 96 18 115 102h38l-12 -157h-543v39h22c58 0 78 23 78 72v102h-193l-52 -101c-22 -43 -14 -73 34 -73h18v-39h-230v39h13c41 0 84 39 118 106l194 379c21 40 20 59 -24 59h-32v39h566l10 -145h-38c-10 68 -23 90 -69 90h-177
v-228h112c55 0 75 19 75 72h40v-199h-40c0 54 -13 72 -90 72h-97zM407 268v321h-4l-161 -321h165z" />
    <glyph glyph-name="ordfeminine" unicode="&#xaa;" horiz-adv-x="365" 
d="M314 435l11 -15c-22 -21 -53 -36 -75 -36c-24 0 -40 14 -46 37c-27 -27 -50 -37 -79 -37c-47 0 -76 24 -76 63c0 18 7 35 17 45c32 32 79 21 137 63v22c0 23 -15 38 -39 38c-27 0 -40 -21 -36 -44l-73 -23c-6 22 1 45 12 56c17 17 71 37 110 37c25 0 106 -14 106 -76
v-115c0 -27 15 -28 31 -15zM203 445v83c-31 -29 -76 -20 -76 -69c0 -25 13 -42 32 -42c11 0 31 15 44 28z" />
    <glyph glyph-name="Lslash" unicode="&#x141;" horiz-adv-x="604" 
d="M251 328v-227c0 -37 11 -46 50 -46h127c67 0 87 33 154 119h40l-73 -174h-536v39h17c64 0 83 23 83 72v124l-100 -79v64l100 79v212c0 59 -34 72 -79 72h-19v39h339v-39h-29c-52 0 -74 -23 -74 -70v-121l165 130v-64z" />
    <glyph glyph-name="Oslash" unicode="&#xd8;" horiz-adv-x="844" 
d="M254 138l320 376c-38 52 -93 84 -163 84c-127 0 -210 -98 -210 -249c0 -84 19 -157 53 -211zM595 483l-320 -375c41 -51 98 -79 164 -79c139 0 204 120 204 258c0 73 -16 143 -48 196zM749 662l-79 -92c77 -57 122 -144 122 -247c0 -178 -137 -337 -376 -337
c-80 0 -149 18 -204 49l-88 -102l-27 22l85 99c-84 58 -130 149 -130 247c0 198 160 340 383 340c78 0 147 -18 204 -51l81 95z" />
    <glyph glyph-name="OE" unicode="&#x152;" horiz-adv-x="1063" 
d="M697 284v-177c0 -43 8 -52 37 -52h144c65 0 96 18 115 102h38l-12 -157h-494c-16 0 -30 -1 -50 -2c-20 -2 -45 -3 -83 -3c-246 0 -341 175 -341 317c0 129 89 317 346 317c36 0 57 -2 78 -3c21 -2 43 -4 79 -4h436l10 -145h-38c-10 68 -23 90 -69 90h-196v-228h131
c55 0 75 19 75 72h40v-199h-40c0 54 -13 72 -90 72h-116zM559 191v264c0 77 -25 131 -135 131c-135 0 -225 -101 -225 -254c0 -160 108 -291 241 -291c87 0 119 60 119 150z" />
    <glyph glyph-name="ordmasculine" unicode="&#xba;" horiz-adv-x="375" 
d="M29 509c0 75 70 132 164 132c89 0 153 -52 153 -125c0 -75 -70 -132 -163 -132c-90 0 -154 52 -154 125zM115 544c0 -77 36 -132 85 -132c38 0 60 23 60 72c0 77 -35 129 -84 129c-39 0 -61 -24 -61 -69z" />
    <glyph glyph-name="ae" unicode="&#xe6;" horiz-adv-x="698" 
d="M634 134l20 -24c-53 -72 -138 -121 -212 -121c-56 0 -117 27 -154 70c-49 -47 -94 -68 -141 -68c-67 0 -110 40 -110 103c0 28 11 60 32 81c51 51 130 38 200 94c8 66 -16 111 -61 111c-35 0 -60 -33 -46 -78l-115 -40c-8 31 -1 75 22 98c35 35 114 59 164 59
c47 0 89 -14 120 -39c30 26 71 39 119 39c52 0 102 -20 132 -50c47 -47 31 -107 59 -135v-24h-273c11 -96 57 -146 125 -146c40 0 71 19 119 70zM269 84v140c-50 -35 -75 -34 -95 -54c-10 -10 -19 -32 -19 -57c0 -39 20 -68 47 -68c22 0 48 15 67 39zM390 249h140
c0 73 -27 123 -71 123s-69 -45 -69 -123z" />
    <glyph glyph-name="dotlessi" unicode="&#x131;" horiz-adv-x="292" 
d="M265 32v-32h-250v32h11c41 0 56 18 56 70v192c0 26 -6 33 -34 43l-33 12v24l171 57h18v-335c0 -41 17 -63 61 -63z" />
    <glyph glyph-name="lslash" unicode="&#x142;" horiz-adv-x="271" 
d="M195 346v-244c0 -47 14 -70 60 -70v-32h-248v32h10c42 0 56 19 56 70v139l-69 -69v54l69 69v219c0 44 -3 52 -26 60l-43 16v29l173 50h18v-269l76 76v-54z" />
    <glyph glyph-name="oslash" unicode="&#xf8;" horiz-adv-x="573" 
d="M422 389l64 76l28 -25l-61 -71c50 -39 77 -95 77 -158c0 -126 -108 -222 -249 -222c-46 0 -85 9 -129 29l-55 -64l-28 23l52 61c-50 39 -78 96 -78 160c0 126 108 221 250 221c47 0 91 -10 129 -30zM199 129l161 189c-22 38 -54 58 -92 58c-58 0 -93 -45 -93 -118
c0 -41 9 -92 24 -129zM377 281l-162 -189c25 -40 55 -60 92 -60c59 0 91 44 91 125c0 42 -7 87 -21 124z" />
    <glyph glyph-name="oe" unicode="&#x153;" horiz-adv-x="781" 
d="M724 129l24 -23c-48 -70 -129 -114 -206 -114c-45 0 -76 10 -121 40c-50 -28 -104 -43 -153 -43c-127 0 -224 93 -224 214c0 122 102 214 236 214c58 0 111 -15 153 -45c47 34 83 47 133 47c46 0 95 -18 121 -44c47 -47 35 -89 66 -136v-29h-258c10 -91 57 -142 120 -142
c35 0 75 23 109 61zM171 264c0 -69 31 -232 124 -232c52 0 86 43 86 110c0 76 -27 232 -126 232c-50 0 -84 -44 -84 -110zM493 249h128c-2 80 -26 127 -65 127c-51 0 -63 -61 -63 -127z" />
    <glyph glyph-name="germandbls" unicode="&#xdf;" horiz-adv-x="563" 
d="M266 344v32c72 3 107 43 107 123c0 100 -49 137 -96 137c-67 0 -82 -69 -82 -158v-387c0 -39 12 -59 50 -59v-32h-231v32c44 0 59 10 59 56v306c0 100 6 172 56 222c31 31 87 56 162 56c120 0 201 -61 201 -152c0 -78 -61 -140 -158 -161v-2c126 -14 193 -91 193 -179
s-78 -196 -233 -190v35c74 6 108 52 108 141c0 109 -49 175 -136 180z" />
    <glyph glyph-name="logicalnot" unicode="&#xac;" horiz-adv-x="667" 
d="M66 480h534v-307h-77v230h-457v77z" />
    <glyph glyph-name="mu" unicode="&#xb5;" horiz-adv-x="552" 
d="M62 408h122v-290c0 -45 27 -65 56 -65c30 0 69 18 94 59v296h122v-298c0 -29 10 -50 33 -50c24 0 33 21 38 70h20c-1 -43 -7 -66 -24 -90c-23 -34 -62 -54 -102 -54c-51 0 -67 25 -84 77c-48 -55 -103 -77 -154 -77c-27 0 -43 6 -74 28c0 -90 29 -121 29 -164
c0 -40 -23 -65 -59 -65c-33 0 -52 21 -52 58c0 64 35 102 35 251v314z" />
    <glyph glyph-name="trademark" unicode="&#x2122;" horiz-adv-x="1000" 
d="M-2 662h379v-110h-17c-4 62 -29 85 -94 85h-18v-287c0 -55 8 -65 49 -65v-17h-221v17c48 3 50 6 50 67v285h-16c-63 0 -90 -24 -96 -85h-16v110zM431 662h180l113 -242l109 242h172v-19c-42 0 -50 -8 -50 -64v-242c0 -37 15 -52 50 -52v-17h-225v17c46 0 53 9 53 63v246
h-2l-151 -326h-12l-154 326h-2v-251c0 -45 7 -58 56 -58v-17h-137v17c49 2 54 8 54 65v229c0 53 -8 65 -45 65l-9 -1v19z" />
    <glyph glyph-name="Eth" unicode="&#xd0;" horiz-adv-x="823" 
d="M21 583v39c54 3 116 5 161 8c50 3 88 5 137 5c200 0 294 -25 368 -99c53 -53 84 -125 84 -210c0 -91 -40 -171 -93 -224c-51 -51 -134 -102 -339 -102h-318v39c66 0 93 13 93 70v170h-93v60h93v156c0 71 -16 88 -93 88zM252 583v-244h163v-60h-163v-163
c0 -67 10 -76 87 -76c225 0 283 154 283 273c0 83 -29 158 -74 203c-49 49 -116 72 -218 72c-27 0 -49 -1 -78 -5z" />
    <glyph glyph-name="onehalf" unicode="&#xbd;" horiz-adv-x="823" 
d="M114 -28l445 665h71l-446 -665h-70zM456 0v22c118 109 156 145 156 199c0 39 -20 63 -53 63c-31 0 -56 -23 -63 -58h-34c9 63 58 105 124 105c63 0 109 -40 109 -94c0 -69 -56 -86 -155 -177h94c31 0 39 5 46 39h30l-12 -99h-242zM204 637v-287c0 -14 5 -20 14 -20h44
v-24h-199v24h43c9 0 13 6 13 18v215c-22 -11 -44 -19 -67 -24l-11 21c49 20 88 45 121 77h42z" />
    <glyph glyph-name="plusminus" unicode="&#xb1;" horiz-adv-x="668" 
d="M67 53h534v-76h-534v76zM372 448h229v-76h-229v-229h-76v229h-229v76h229v229h76v-229z" />
    <glyph glyph-name="Thorn" unicode="&#xde;" horiz-adv-x="646" 
d="M252 454v-284c21 -5 43 -7 72 -7c93 0 145 54 145 152c0 92 -54 146 -146 146c-24 0 -47 -2 -71 -7zM252 502c22 0 47 3 91 3c199 0 275 -93 275 -196c0 -116 -98 -190 -252 -190c-36 0 -72 3 -114 10v-15c0 -58 22 -75 87 -75h30v-39h-340v39h15c55 0 70 12 70 57v430
c0 45 -15 57 -70 57h-15v39h308v-39c-72 0 -85 -3 -85 -81z" />
    <glyph glyph-name="onequarter" unicode="&#xbc;" horiz-adv-x="823" 
d="M552 -8v87h-127v27l170 225h41v-212h50v-40h-50v-87h-84zM552 119v102h-2l-75 -102h77zM114 -28l445 665h71l-446 -665h-70zM204 637v-287c0 -14 5 -20 14 -20h44v-24h-199v24h43c9 0 13 6 13 18v215c-22 -11 -44 -19 -67 -24l-11 21c49 20 88 45 121 77h42z" />
    <glyph glyph-name="divide" unicode="&#xf7;" horiz-adv-x="668" 
d="M67 364h534v-76h-534v76zM334 575c27 0 48 -21 48 -48s-21 -48 -48 -48s-48 21 -48 48s21 48 48 48zM334 173c27 0 48 -21 48 -48s-21 -48 -48 -48s-48 21 -48 48s21 48 48 48z" />
    <glyph glyph-name="brokenbar" unicode="&#xa6;" horiz-adv-x="566" 
d="M244 198h78v-333h-78v333zM244 641h78v-332h-78v332z" />
    <glyph glyph-name="degree" unicode="&#xb0;" horiz-adv-x="396" 
d="M198 638c93 0 169 -76 169 -169s-76 -169 -169 -169s-169 76 -169 169s76 169 169 169zM198 574c-58 0 -105 -47 -105 -105s47 -105 105 -105s105 47 105 105s-47 105 -105 105z" />
    <glyph glyph-name="thorn" unicode="&#xfe;" horiz-adv-x="573" 
d="M201 2v-107c0 -66 17 -86 99 -91v-31h-287v31h12c39 0 54 18 54 66v659c0 28 -8 41 -27 48l-37 13v25l160 54h26v-335c57 45 101 85 167 85c92 0 163 -82 163 -189c0 -111 -75 -241 -228 -241c-31 0 -62 4 -102 13zM201 293v-218c29 -30 68 -49 103 -49
c61 0 104 60 104 147c0 89 -37 171 -109 171c-28 0 -59 -16 -98 -51z" />
    <glyph glyph-name="threequarters" unicode="&#xbe;" horiz-adv-x="823" 
d="M133 -28l445 665h71l-446 -665h-70zM132 460l-13 20c39 24 61 53 61 78c0 21 -15 36 -36 36s-37 -12 -53 -42l-27 11c18 46 60 74 112 74c48 0 85 -26 85 -60c0 -25 -16 -46 -55 -67v-2c52 -6 83 -38 83 -88c0 -70 -64 -122 -152 -122c-50 0 -91 20 -91 46
c0 13 12 30 38 30c45 0 39 -46 79 -46c27 0 45 27 45 66c0 42 -22 70 -54 70c-7 0 -12 -1 -22 -4zM571 -8v87h-127v27l170 225h41v-212h50v-40h-50v-87h-84zM571 119v102h-2l-75 -102h77z" />
    <glyph glyph-name="registered" unicode="&#xae;" horiz-adv-x="750" 
d="M190 532h195c109 0 155 -48 155 -107c0 -49 -31 -85 -87 -101l66 -122c17 -32 31 -45 52 -49v-16h-118l-101 180h-22v-97c0 -55 8 -65 59 -67v-16h-207v16c40 -1 51 13 51 67v231c0 51 -7 61 -43 64v17zM330 511v-169c70 -12 105 31 105 86s-32 83 -81 83h-24zM375 677
c191 0 346 -155 346 -346s-155 -346 -346 -346s-346 155 -346 346s155 346 346 346zM375 634c-167 0 -303 -136 -303 -303s136 -303 303 -303s303 136 303 303s-136 303 -303 303z" />
    <glyph glyph-name="minus" unicode="&#x2212;" horiz-adv-x="667" 
d="M66 364h534v-76h-534v76z" />
    <glyph glyph-name="eth" unicode="&#xf0;" horiz-adv-x="563" 
d="M166 637l22 32c51 -16 83 -32 137 -66l116 66l17 -32l-101 -57c108 -95 168 -214 168 -343c0 -153 -97 -248 -250 -248c-173 0 -237 122 -237 207c0 118 110 223 234 223c19 0 50 -2 80 -28l3 1c-28 78 -53 108 -79 144l-125 -73l-17 31l119 70c-26 30 -45 46 -87 73z
M391 156c0 104 -44 220 -129 220c-59 0 -92 -44 -92 -123c0 -88 37 -224 129 -224c35 0 92 20 92 127z" />
    <glyph glyph-name="multiply" unicode="&#xd7;" horiz-adv-x="667" 
d="M333 271l-193 -193l-54 54l193 193l-194 194l54 54l194 -194l194 194l54 -54l-194 -194l194 -194l-54 -54z" />
    <glyph glyph-name="copyright" unicode="&#xa9;" horiz-adv-x="750" 
d="M539 540v-129h-19c-13 66 -59 106 -120 106c-80 0 -127 -67 -127 -180c0 -136 63 -181 125 -181c49 0 89 21 127 68v-35c-40 -41 -91 -62 -156 -62c-121 0 -205 82 -205 199c0 124 90 215 214 215c65 0 99 -26 119 -26c12 0 20 8 23 25h19zM375 677
c191 0 346 -155 346 -346s-155 -346 -346 -346s-346 155 -346 346s155 346 346 346zM375 634c-167 0 -303 -136 -303 -303s136 -303 303 -303s303 136 303 303s-136 303 -303 303z" />
    <glyph glyph-name="Aacute" unicode="&#xc1;" horiz-adv-x="740" 
d="M443 231h-219l-42 -117c-18 -51 -17 -75 79 -75h13v-39h-265v39h15c48 0 73 22 98 92l171 477l-11 29h148l200 -508c26 -66 48 -86 100 -90v-39h-325v39h35c61 0 70 27 50 76zM420 286l-92 234l-84 -234h176zM291 682l74 189h161l-177 -189h-58z" />
    <glyph glyph-name="Acircumflex" unicode="&#xc2;" horiz-adv-x="740" 
d="M443 231h-219l-42 -117c-18 -51 -17 -75 79 -75h13v-39h-265v39h15c48 0 73 22 98 92l171 477l-11 29h148l200 -508c26 -66 48 -86 100 -90v-39h-325v39h35c61 0 70 27 50 76zM420 286l-92 234l-84 -234h176zM370 788l-75 -106h-80l80 189h148l84 -189h-78z" />
    <glyph glyph-name="Adieresis" unicode="&#xc4;" horiz-adv-x="740" 
d="M443 231h-219l-42 -117c-18 -51 -17 -75 79 -75h13v-39h-265v39h15c48 0 73 22 98 92l171 477l-11 29h148l200 -508c26 -66 48 -86 100 -90v-39h-325v39h35c61 0 70 27 50 76zM420 286l-92 234l-84 -234h176zM468 824c33 0 60 -27 60 -60s-27 -60 -60 -60s-60 27 -60 60
s27 60 60 60zM274 824c33 0 60 -27 60 -60s-27 -60 -60 -60s-60 27 -60 60s27 60 60 60z" />
    <glyph glyph-name="Agrave" unicode="&#xc0;" horiz-adv-x="740" 
d="M443 231h-219l-42 -117c-18 -51 -17 -75 79 -75h13v-39h-265v39h15c48 0 73 22 98 92l171 477l-11 29h148l200 -508c26 -66 48 -86 100 -90v-39h-325v39h35c61 0 70 27 50 76zM420 286l-92 234l-84 -234h176zM446 682h-58l-177 189h161z" />
    <glyph glyph-name="Aring" unicode="&#xc5;" horiz-adv-x="740" 
d="M443 231h-219l-42 -117c-18 -51 -17 -75 79 -75h13v-39h-265v39h15c48 0 73 22 98 92l171 477l-11 29h148l200 -508c26 -66 48 -86 100 -90v-39h-325v39h35c61 0 70 27 50 76zM420 286l-92 234l-84 -234h176zM371 868c54 0 97 -43 97 -97s-43 -97 -97 -97s-97 43 -97 97
s43 97 97 97zM371 833c-34 0 -62 -28 -62 -62s28 -62 62 -62s62 28 62 62s-28 62 -62 62z" />
    <glyph glyph-name="Atilde" unicode="&#xc3;" horiz-adv-x="740" 
d="M443 231h-219l-42 -117c-18 -51 -17 -75 79 -75h13v-39h-265v39h15c48 0 73 22 98 92l171 477l-11 29h148l200 -508c26 -66 48 -86 100 -90v-39h-325v39h35c61 0 70 27 50 76zM420 286l-92 234l-84 -234h176zM250 706h-63c0 87 45 147 110 147c57 0 109 -51 146 -51
c22 0 39 18 47 50h64c-4 -83 -50 -145 -109 -145c-57 0 -112 50 -148 50c-24 0 -38 -15 -47 -51z" />
    <glyph glyph-name="Ccedilla" unicode="&#xc7;" horiz-adv-x="740" 
d="M268 -181l9 30c14 -6 38 -11 56 -11c24 0 44 18 44 40c0 25 -16 35 -57 39l51 71c-184 20 -320 153 -320 321c0 184 169 328 383 328c104 0 172 -41 192 -41c8 0 14 3 20 10h25l9 -175h-39c-32 99 -103 155 -199 155c-143 0 -242 -108 -242 -266
c0 -161 110 -285 253 -285c92 0 168 53 209 144h40c-8 -53 -32 -130 -56 -182c-16 5 -36 7 -59 7c-47 0 -97 -18 -181 -18l-11 -19c38 -10 61 -39 61 -79c0 -54 -43 -93 -101 -93c-31 0 -62 8 -87 24z" />
    <glyph glyph-name="Eacute" unicode="&#xc9;" horiz-adv-x="646" 
d="M543 477c-10 68 -23 90 -69 90h-219v-225h162c55 0 75 19 75 72h40v-199h-40c0 54 -13 72 -90 72h-147v-180c0 -43 8 -52 37 -52h167c65 0 96 18 115 102h38l-12 -157h-602v39h41c58 0 78 23 78 72v399c0 54 -18 73 -87 73h-10v39h551l10 -145h-38zM244 682l74 189h161
l-177 -189h-58z" />
    <glyph glyph-name="Ecircumflex" unicode="&#xca;" horiz-adv-x="646" 
d="M543 477c-10 68 -23 90 -69 90h-219v-225h162c55 0 75 19 75 72h40v-199h-40c0 54 -13 72 -90 72h-147v-180c0 -43 8 -52 37 -52h167c65 0 96 18 115 102h38l-12 -157h-602v39h41c58 0 78 23 78 72v399c0 54 -18 73 -87 73h-10v39h551l10 -145h-38zM323 788l-75 -106h-80
l80 189h148l84 -189h-78z" />
    <glyph glyph-name="Edieresis" unicode="&#xcb;" horiz-adv-x="646" 
d="M543 477c-10 68 -23 90 -69 90h-219v-225h162c55 0 75 19 75 72h40v-199h-40c0 54 -13 72 -90 72h-147v-180c0 -43 8 -52 37 -52h167c65 0 96 18 115 102h38l-12 -157h-602v39h41c58 0 78 23 78 72v399c0 54 -18 73 -87 73h-10v39h551l10 -145h-38zM421 824
c33 0 60 -27 60 -60s-27 -60 -60 -60s-60 27 -60 60s27 60 60 60zM227 824c33 0 60 -27 60 -60s-27 -60 -60 -60s-60 27 -60 60s27 60 60 60z" />
    <glyph glyph-name="Egrave" unicode="&#xc8;" horiz-adv-x="646" 
d="M543 477c-10 68 -23 90 -69 90h-219v-225h162c55 0 75 19 75 72h40v-199h-40c0 54 -13 72 -90 72h-147v-180c0 -43 8 -52 37 -52h167c65 0 96 18 115 102h38l-12 -157h-602v39h41c58 0 78 23 78 72v399c0 54 -18 73 -87 73h-10v39h551l10 -145h-38zM399 682h-58l-177 189
h161z" />
    <glyph glyph-name="Iacute" unicode="&#xcd;" horiz-adv-x="365" 
d="M23 583v39h318v-39h-17c-54 0 -76 -23 -76 -75v-396c0 -49 17 -73 78 -73h15v-39h-318v39h14c53 0 73 25 73 69v400c0 52 -18 75 -74 75h-13zM103 682l74 189h161l-177 -189h-58z" />
    <glyph glyph-name="Icircumflex" unicode="&#xce;" horiz-adv-x="365" 
d="M23 583v39h318v-39h-17c-54 0 -76 -23 -76 -75v-396c0 -49 17 -73 78 -73h15v-39h-318v39h14c53 0 73 25 73 69v400c0 52 -18 75 -74 75h-13zM182 788l-75 -106h-80l80 189h148l84 -189h-78z" />
    <glyph glyph-name="Idieresis" unicode="&#xcf;" horiz-adv-x="365" 
d="M23 583v39h318v-39h-17c-54 0 -76 -23 -76 -75v-396c0 -49 17 -73 78 -73h15v-39h-318v39h14c53 0 73 25 73 69v400c0 52 -18 75 -74 75h-13zM280 824c33 0 60 -27 60 -60s-27 -60 -60 -60s-60 27 -60 60s27 60 60 60zM86 824c33 0 60 -27 60 -60s-27 -60 -60 -60
s-60 27 -60 60s27 60 60 60z" />
    <glyph glyph-name="Igrave" unicode="&#xcc;" horiz-adv-x="365" 
d="M23 583v39h318v-39h-17c-54 0 -76 -23 -76 -75v-396c0 -49 17 -73 78 -73h15v-39h-318v39h14c53 0 73 25 73 69v400c0 52 -18 75 -74 75h-13zM258 682h-58l-177 189h161z" />
    <glyph glyph-name="Ntilde" unicode="&#xd1;" horiz-adv-x="813" 
d="M167 498v-378c0 -61 19 -81 99 -81v-39h-242v39h6c61 0 76 22 76 63v459c-22 15 -49 22 -80 22v39h206l408 -426v302c0 72 -15 85 -95 85h-10v39h258v-39h-10c-62 0 -82 -13 -82 -51v-535h-55zM286 706h-63c0 87 45 147 110 147c57 0 109 -51 146 -51c22 0 39 18 47 50
h64c-4 -83 -50 -145 -109 -145c-57 0 -112 50 -148 50c-24 0 -38 -15 -47 -51z" />
    <glyph glyph-name="Oacute" unicode="&#xd3;" horiz-adv-x="844" 
d="M52 301c0 198 160 340 383 340c209 0 357 -131 357 -318c0 -178 -137 -337 -376 -337c-230 0 -364 147 -364 315zM201 349c0 -191 97 -320 238 -320c139 0 204 120 204 258c0 161 -80 311 -232 311c-127 0 -210 -98 -210 -249zM343 682l74 189h161l-177 -189h-58z" />
    <glyph glyph-name="Ocircumflex" unicode="&#xd4;" horiz-adv-x="844" 
d="M52 301c0 198 160 340 383 340c209 0 357 -131 357 -318c0 -178 -137 -337 -376 -337c-230 0 -364 147 -364 315zM201 349c0 -191 97 -320 238 -320c139 0 204 120 204 258c0 161 -80 311 -232 311c-127 0 -210 -98 -210 -249zM422 788l-75 -106h-80l80 189h148l84 -189
h-78z" />
    <glyph glyph-name="Odieresis" unicode="&#xd6;" horiz-adv-x="844" 
d="M52 301c0 198 160 340 383 340c209 0 357 -131 357 -318c0 -178 -137 -337 -376 -337c-230 0 -364 147 -364 315zM201 349c0 -191 97 -320 238 -320c139 0 204 120 204 258c0 161 -80 311 -232 311c-127 0 -210 -98 -210 -249zM520 824c33 0 60 -27 60 -60
s-27 -60 -60 -60s-60 27 -60 60s27 60 60 60zM326 824c33 0 60 -27 60 -60s-27 -60 -60 -60s-60 27 -60 60s27 60 60 60z" />
    <glyph glyph-name="Ograve" unicode="&#xd2;" horiz-adv-x="844" 
d="M52 301c0 198 160 340 383 340c209 0 357 -131 357 -318c0 -178 -137 -337 -376 -337c-230 0 -364 147 -364 315zM201 349c0 -191 97 -320 238 -320c139 0 204 120 204 258c0 161 -80 311 -232 311c-127 0 -210 -98 -210 -249zM498 682h-58l-177 189h161z" />
    <glyph glyph-name="Otilde" unicode="&#xd5;" horiz-adv-x="844" 
d="M52 301c0 198 160 340 383 340c209 0 357 -131 357 -318c0 -178 -137 -337 -376 -337c-230 0 -364 147 -364 315zM201 349c0 -191 97 -320 238 -320c139 0 204 120 204 258c0 161 -80 311 -232 311c-127 0 -210 -98 -210 -249zM302 706h-63c0 87 45 147 110 147
c57 0 109 -51 146 -51c22 0 39 18 47 50h64c-4 -83 -50 -145 -109 -145c-57 0 -112 50 -148 50c-24 0 -38 -15 -47 -51z" />
    <glyph glyph-name="Scaron" unicode="&#x160;" horiz-adv-x="563" 
d="M83 2l-25 182h39c33 -99 92 -150 171 -150c66 0 116 42 116 98c0 149 -321 144 -321 342c0 96 84 163 203 163c77 0 137 -26 152 -26c7 0 13 2 22 11h21l19 -162h-40c-22 81 -86 134 -163 134c-56 0 -98 -30 -98 -69c0 -92 166 -109 278 -221c41 -41 57 -84 57 -132
c0 -104 -94 -186 -213 -186c-80 0 -153 32 -171 32c-9 0 -16 -5 -21 -16h-26zM282 765l75 106h80l-80 -189h-148l-84 189h78z" />
    <glyph glyph-name="Uacute" unicode="&#xda;" horiz-adv-x="771" 
d="M507 583v39h259v-39h-7c-80 0 -92 -35 -92 -83v-249c0 -223 -162 -265 -281 -265c-180 0 -294 78 -294 231v298c0 50 -14 68 -70 68h-17v39h313v-39h-17c-42 0 -71 -19 -71 -68v-298c0 -122 90 -164 181 -164c131 0 196 74 196 184v243c0 71 -20 103 -82 103h-18z
M306 682l74 189h161l-177 -189h-58z" />
    <glyph glyph-name="Ucircumflex" unicode="&#xdb;" horiz-adv-x="771" 
d="M507 583v39h259v-39h-7c-80 0 -92 -35 -92 -83v-249c0 -223 -162 -265 -281 -265c-180 0 -294 78 -294 231v298c0 50 -14 68 -70 68h-17v39h313v-39h-17c-42 0 -71 -19 -71 -68v-298c0 -122 90 -164 181 -164c131 0 196 74 196 184v243c0 71 -20 103 -82 103h-18z
M385 788l-75 -106h-80l80 189h148l84 -189h-78z" />
    <glyph glyph-name="Udieresis" unicode="&#xdc;" horiz-adv-x="771" 
d="M507 583v39h259v-39h-7c-80 0 -92 -35 -92 -83v-249c0 -223 -162 -265 -281 -265c-180 0 -294 78 -294 231v298c0 50 -14 68 -70 68h-17v39h313v-39h-17c-42 0 -71 -19 -71 -68v-298c0 -122 90 -164 181 -164c131 0 196 74 196 184v243c0 71 -20 103 -82 103h-18z
M483 824c33 0 60 -27 60 -60s-27 -60 -60 -60s-60 27 -60 60s27 60 60 60zM289 824c33 0 60 -27 60 -60s-27 -60 -60 -60s-60 27 -60 60s27 60 60 60z" />
    <glyph glyph-name="Ugrave" unicode="&#xd9;" horiz-adv-x="771" 
d="M507 583v39h259v-39h-7c-80 0 -92 -35 -92 -83v-249c0 -223 -162 -265 -281 -265c-180 0 -294 78 -294 231v298c0 50 -14 68 -70 68h-17v39h313v-39h-17c-42 0 -71 -19 -71 -68v-298c0 -122 90 -164 181 -164c131 0 196 74 196 184v243c0 71 -20 103 -82 103h-18z
M461 682h-58l-177 189h161z" />
    <glyph glyph-name="Yacute" unicode="&#xdd;" horiz-adv-x="750" 
d="M459 250v-137c0 -48 15 -74 87 -74h15v-39h-341v39h25c60 0 76 27 76 72v139l-215 286c-29 38 -41 47 -91 47h-7v39h326v-39h-12c-58 0 -66 -24 -45 -51l160 -211l116 182c26 41 34 80 -36 80h-12v39h236v-39c-58 -4 -75 -15 -111 -70zM296 682l74 189h161l-177 -189h-58
z" />
    <glyph glyph-name="Ydieresis" unicode="&#x178;" horiz-adv-x="750" 
d="M459 250v-137c0 -48 15 -74 87 -74h15v-39h-341v39h25c60 0 76 27 76 72v139l-215 286c-29 38 -41 47 -91 47h-7v39h326v-39h-12c-58 0 -66 -24 -45 -51l160 -211l116 182c26 41 34 80 -36 80h-12v39h236v-39c-58 -4 -75 -15 -111 -70zM473 824c33 0 60 -27 60 -60
s-27 -60 -60 -60s-60 27 -60 60s27 60 60 60zM279 824c33 0 60 -27 60 -60s-27 -60 -60 -60s-60 27 -60 60s27 60 60 60z" />
    <glyph glyph-name="Zcaron" unicode="&#x17d;" horiz-adv-x="750" 
d="M703 200l-12 -200h-633v55l444 512h-269c-58 0 -89 -27 -96 -113h-38l7 168h578v-57l-444 -510h306c73 0 92 32 119 145h38zM376 765l75 106h80l-80 -189h-148l-84 189h78z" />
    <glyph glyph-name="aacute" unicode="&#xe1;" horiz-adv-x="479" 
d="M446 74l15 -24c-31 -34 -81 -60 -114 -60c-37 0 -64 24 -70 62c-40 -39 -67 -63 -123 -63c-71 0 -116 41 -116 105c0 32 14 63 31 80c47 47 128 37 206 101v37c0 39 -27 67 -63 67c-35 0 -60 -25 -52 -77l-112 -39c-9 41 -5 70 21 96c34 34 116 60 165 60
s163 -28 163 -122v-189c0 -35 7 -46 22 -46c8 0 13 2 27 12zM275 87v143c-48 -42 -117 -35 -117 -116c0 -42 20 -69 50 -69c17 0 38 14 67 42zM160 477l74 189h161l-177 -189h-58z" />
    <glyph glyph-name="acircumflex" unicode="&#xe2;" horiz-adv-x="479" 
d="M446 74l15 -24c-31 -34 -81 -60 -114 -60c-37 0 -64 24 -70 62c-40 -39 -67 -63 -123 -63c-71 0 -116 41 -116 105c0 32 14 63 31 80c47 47 128 37 206 101v37c0 39 -27 67 -63 67c-35 0 -60 -25 -52 -77l-112 -39c-9 41 -5 70 21 96c34 34 116 60 165 60
s163 -28 163 -122v-189c0 -35 7 -46 22 -46c8 0 13 2 27 12zM275 87v143c-48 -42 -117 -35 -117 -116c0 -42 20 -69 50 -69c17 0 38 14 67 42zM239 583l-75 -106h-80l80 189h148l84 -189h-78z" />
    <glyph glyph-name="adieresis" unicode="&#xe4;" horiz-adv-x="479" 
d="M446 74l15 -24c-31 -34 -81 -60 -114 -60c-37 0 -64 24 -70 62c-40 -39 -67 -63 -123 -63c-71 0 -116 41 -116 105c0 32 14 63 31 80c47 47 128 37 206 101v37c0 39 -27 67 -63 67c-35 0 -60 -25 -52 -77l-112 -39c-9 41 -5 70 21 96c34 34 116 60 165 60
s163 -28 163 -122v-189c0 -35 7 -46 22 -46c8 0 13 2 27 12zM275 87v143c-48 -42 -117 -35 -117 -116c0 -42 20 -69 50 -69c17 0 38 14 67 42zM337 619c33 0 60 -27 60 -60s-27 -60 -60 -60s-60 27 -60 60s27 60 60 60zM143 619c33 0 60 -27 60 -60s-27 -60 -60 -60
s-60 27 -60 60s27 60 60 60z" />
    <glyph glyph-name="agrave" unicode="&#xe0;" horiz-adv-x="479" 
d="M446 74l15 -24c-31 -34 -81 -60 -114 -60c-37 0 -64 24 -70 62c-40 -39 -67 -63 -123 -63c-71 0 -116 41 -116 105c0 32 14 63 31 80c47 47 128 37 206 101v37c0 39 -27 67 -63 67c-35 0 -60 -25 -52 -77l-112 -39c-9 41 -5 70 21 96c34 34 116 60 165 60
s163 -28 163 -122v-189c0 -35 7 -46 22 -46c8 0 13 2 27 12zM275 87v143c-48 -42 -117 -35 -117 -116c0 -42 20 -69 50 -69c17 0 38 14 67 42zM315 477h-58l-177 189h161z" />
    <glyph glyph-name="aring" unicode="&#xe5;" horiz-adv-x="479" 
d="M446 74l15 -24c-31 -34 -81 -60 -114 -60c-37 0 -64 24 -70 62c-40 -39 -67 -63 -123 -63c-71 0 -116 41 -116 105c0 32 14 63 31 80c47 47 128 37 206 101v37c0 39 -27 67 -63 67c-35 0 -60 -25 -52 -77l-112 -39c-9 41 -5 70 21 96c34 34 116 60 165 60
s163 -28 163 -122v-189c0 -35 7 -46 22 -46c8 0 13 2 27 12zM275 87v143c-48 -42 -117 -35 -117 -116c0 -42 20 -69 50 -69c17 0 38 14 67 42zM240 663c54 0 97 -43 97 -97s-43 -97 -97 -97s-97 43 -97 97s43 97 97 97zM240 628c-34 0 -62 -28 -62 -62s28 -62 62 -62
s62 28 62 62s-28 62 -62 62z" />
    <glyph glyph-name="atilde" unicode="&#xe3;" horiz-adv-x="479" 
d="M446 74l15 -24c-31 -34 -81 -60 -114 -60c-37 0 -64 24 -70 62c-40 -39 -67 -63 -123 -63c-71 0 -116 41 -116 105c0 32 14 63 31 80c47 47 128 37 206 101v37c0 39 -27 67 -63 67c-35 0 -60 -25 -52 -77l-112 -39c-9 41 -5 70 21 96c34 34 116 60 165 60
s163 -28 163 -122v-189c0 -35 7 -46 22 -46c8 0 13 2 27 12zM275 87v143c-48 -42 -117 -35 -117 -116c0 -42 20 -69 50 -69c17 0 38 14 67 42zM119 501h-63c0 87 45 147 110 147c57 0 109 -51 146 -51c22 0 39 18 47 50h64c-4 -83 -50 -145 -109 -145c-57 0 -112 50 -148 50
c-24 0 -38 -15 -47 -51z" />
    <glyph glyph-name="ccedilla" unicode="&#xe7;" horiz-adv-x="490" 
d="M429 112l29 -16c-45 -69 -114 -107 -200 -107l-13 -22c38 -10 61 -39 61 -79c0 -54 -43 -93 -101 -93c-31 0 -62 8 -87 24l9 30c14 -6 38 -11 56 -11c24 0 44 18 44 40c0 25 -16 35 -57 39l54 75c-106 11 -180 90 -180 195c0 131 113 232 259 232c86 0 151 -36 151 -85
c0 -30 -20 -50 -51 -50c-70 0 -85 89 -143 89c-50 0 -84 -61 -84 -151c0 -108 51 -181 125 -181c45 0 87 23 128 71z" />
    <glyph glyph-name="eacute" unicode="&#xe9;" horiz-adv-x="479" 
d="M416 135l23 -19c-56 -79 -137 -127 -214 -127c-109 0 -183 84 -183 205c0 132 89 225 214 225c53 0 95 -17 126 -48c59 -59 31 -115 66 -133v-29h-277c8 -83 64 -146 123 -146c37 0 73 21 122 72zM168 248h142c-1 77 -28 124 -71 124c-41 0 -78 -53 -71 -124zM160 477
l74 189h161l-177 -189h-58z" />
    <glyph glyph-name="ecircumflex" unicode="&#xea;" horiz-adv-x="479" 
d="M416 135l23 -19c-56 -79 -137 -127 -214 -127c-109 0 -183 84 -183 205c0 132 89 225 214 225c53 0 95 -17 126 -48c59 -59 31 -115 66 -133v-29h-277c8 -83 64 -146 123 -146c37 0 73 21 122 72zM168 248h142c-1 77 -28 124 -71 124c-41 0 -78 -53 -71 -124zM239 583
l-75 -106h-80l80 189h148l84 -189h-78z" />
    <glyph glyph-name="edieresis" unicode="&#xeb;" horiz-adv-x="479" 
d="M416 135l23 -19c-56 -79 -137 -127 -214 -127c-109 0 -183 84 -183 205c0 132 89 225 214 225c53 0 95 -17 126 -48c59 -59 31 -115 66 -133v-29h-277c8 -83 64 -146 123 -146c37 0 73 21 122 72zM168 248h142c-1 77 -28 124 -71 124c-41 0 -78 -53 -71 -124zM337 619
c33 0 60 -27 60 -60s-27 -60 -60 -60s-60 27 -60 60s27 60 60 60zM143 619c33 0 60 -27 60 -60s-27 -60 -60 -60s-60 27 -60 60s27 60 60 60z" />
    <glyph glyph-name="egrave" unicode="&#xe8;" horiz-adv-x="479" 
d="M416 135l23 -19c-56 -79 -137 -127 -214 -127c-109 0 -183 84 -183 205c0 132 89 225 214 225c53 0 95 -17 126 -48c59 -59 31 -115 66 -133v-29h-277c8 -83 64 -146 123 -146c37 0 73 21 122 72zM168 248h142c-1 77 -28 124 -71 124c-41 0 -78 -53 -71 -124zM315 477
h-58l-177 189h161z" />
    <glyph glyph-name="iacute" unicode="&#xed;" horiz-adv-x="292" 
d="M265 32v-32h-250v32h11c41 0 56 18 56 70v192c0 26 -6 33 -34 43l-33 12v24l171 57h18v-335c0 -41 17 -63 61 -63zM67 477l74 189h161l-177 -189h-58z" />
    <glyph glyph-name="icircumflex" unicode="&#xee;" horiz-adv-x="292" 
d="M265 32v-32h-250v32h11c41 0 56 18 56 70v192c0 26 -6 33 -34 43l-33 12v24l171 57h18v-335c0 -41 17 -63 61 -63zM146 583l-75 -106h-80l80 189h148l84 -189h-78z" />
    <glyph glyph-name="idieresis" unicode="&#xef;" horiz-adv-x="292" 
d="M265 32v-32h-250v32h11c41 0 56 18 56 70v192c0 26 -6 33 -34 43l-33 12v24l171 57h18v-335c0 -41 17 -63 61 -63zM244 619c33 0 60 -27 60 -60s-27 -60 -60 -60s-60 27 -60 60s27 60 60 60zM50 619c33 0 60 -27 60 -60s-27 -60 -60 -60s-60 27 -60 60s27 60 60 60z" />
    <glyph glyph-name="igrave" unicode="&#xec;" horiz-adv-x="292" 
d="M265 32v-32h-250v32h11c41 0 56 18 56 70v192c0 26 -6 33 -34 43l-33 12v24l171 57h18v-335c0 -41 17 -63 61 -63zM222 477h-58l-177 189h161z" />
    <glyph glyph-name="ntilde" unicode="&#xf1;" horiz-adv-x="573" 
d="M495 247v-156c0 -49 18 -59 57 -59v-32h-236v32c41 3 57 31 57 113v87c0 80 -22 111 -62 111c-31 0 -64 -15 -106 -44v-203c0 -45 19 -64 59 -64h9v-32h-253v32h6c42 0 57 18 57 70v195c0 22 -12 35 -47 45l-21 6v24l171 58h19v-89c73 48 137 78 185 78
c73 0 105 -52 105 -172zM166 501h-63c0 87 45 147 110 147c57 0 109 -51 146 -51c22 0 39 18 47 50h64c-4 -83 -50 -145 -109 -145c-57 0 -112 50 -148 50c-24 0 -38 -15 -47 -51z" />
    <glyph glyph-name="oacute" unicode="&#xf3;" horiz-adv-x="573" 
d="M43 198c0 126 108 221 251 221c137 0 236 -87 236 -208c0 -127 -108 -222 -251 -222c-138 0 -236 87 -236 209zM175 257c0 -84 36 -225 132 -225c58 0 91 45 91 124c0 128 -54 220 -130 220c-59 0 -93 -44 -93 -119zM207 477l74 189h161l-177 -189h-58z" />
    <glyph glyph-name="ocircumflex" unicode="&#xf4;" horiz-adv-x="573" 
d="M43 198c0 126 108 221 251 221c137 0 236 -87 236 -208c0 -127 -108 -222 -251 -222c-138 0 -236 87 -236 209zM175 257c0 -84 36 -225 132 -225c58 0 91 45 91 124c0 128 -54 220 -130 220c-59 0 -93 -44 -93 -119zM286 583l-75 -106h-80l80 189h148l84 -189h-78z" />
    <glyph glyph-name="odieresis" unicode="&#xf6;" horiz-adv-x="573" 
d="M43 198c0 126 108 221 251 221c137 0 236 -87 236 -208c0 -127 -108 -222 -251 -222c-138 0 -236 87 -236 209zM175 257c0 -84 36 -225 132 -225c58 0 91 45 91 124c0 128 -54 220 -130 220c-59 0 -93 -44 -93 -119zM384 619c33 0 60 -27 60 -60s-27 -60 -60 -60
s-60 27 -60 60s27 60 60 60zM190 619c33 0 60 -27 60 -60s-27 -60 -60 -60s-60 27 -60 60s27 60 60 60z" />
    <glyph glyph-name="ograve" unicode="&#xf2;" horiz-adv-x="573" 
d="M43 198c0 126 108 221 251 221c137 0 236 -87 236 -208c0 -127 -108 -222 -251 -222c-138 0 -236 87 -236 209zM175 257c0 -84 36 -225 132 -225c58 0 91 45 91 124c0 128 -54 220 -130 220c-59 0 -93 -44 -93 -119zM362 477h-58l-177 189h161z" />
    <glyph glyph-name="otilde" unicode="&#xf5;" horiz-adv-x="573" 
d="M43 198c0 126 108 221 251 221c137 0 236 -87 236 -208c0 -127 -108 -222 -251 -222c-138 0 -236 87 -236 209zM175 257c0 -84 36 -225 132 -225c58 0 91 45 91 124c0 128 -54 220 -130 220c-59 0 -93 -44 -93 -119zM166 501h-63c0 87 45 147 110 147
c57 0 109 -51 146 -51c22 0 39 18 47 50h64c-4 -83 -50 -145 -109 -145c-57 0 -112 50 -148 50c-24 0 -38 -15 -47 -51z" />
    <glyph glyph-name="scaron" unicode="&#x161;" horiz-adv-x="375" 
d="M53 -9l-11 127h32c17 -56 61 -86 104 -86c28 0 52 21 52 46c0 69 -188 93 -188 214c0 76 63 127 157 127c38 0 70 -6 112 -21l2 -107h-32c-18 55 -51 85 -94 85c-26 0 -46 -16 -46 -38c0 -82 197 -85 197 -222c0 -74 -53 -126 -130 -126c-69 0 -92 14 -106 14
c-6 0 -12 -4 -20 -13h-29zM188 560l75 106h80l-80 -189h-148l-84 189h78z" />
    <glyph glyph-name="uacute" unicode="&#xfa;" horiz-adv-x="573" 
d="M363 -11v80c-91 -58 -141 -80 -179 -80c-73 0 -109 65 -109 137v167c0 39 -4 48 -21 56l-21 10v23l144 37h20v-255c0 -60 20 -99 65 -99c24 0 59 14 101 41v181c0 39 -6 49 -36 58l-46 14v23l184 37h20v-306c0 -50 5 -60 29 -60c9 0 17 1 30 6v-31l-162 -39h-19zM207 477
l74 189h161l-177 -189h-58z" />
    <glyph glyph-name="ucircumflex" unicode="&#xfb;" horiz-adv-x="573" 
d="M363 -11v80c-91 -58 -141 -80 -179 -80c-73 0 -109 65 -109 137v167c0 39 -4 48 -21 56l-21 10v23l144 37h20v-255c0 -60 20 -99 65 -99c24 0 59 14 101 41v181c0 39 -6 49 -36 58l-46 14v23l184 37h20v-306c0 -50 5 -60 29 -60c9 0 17 1 30 6v-31l-162 -39h-19zM286 583
l-75 -106h-80l80 189h148l84 -189h-78z" />
    <glyph glyph-name="udieresis" unicode="&#xfc;" horiz-adv-x="573" 
d="M363 -11v80c-91 -58 -141 -80 -179 -80c-73 0 -109 65 -109 137v167c0 39 -4 48 -21 56l-21 10v23l144 37h20v-255c0 -60 20 -99 65 -99c24 0 59 14 101 41v181c0 39 -6 49 -36 58l-46 14v23l184 37h20v-306c0 -50 5 -60 29 -60c9 0 17 1 30 6v-31l-162 -39h-19zM384 619
c33 0 60 -27 60 -60s-27 -60 -60 -60s-60 27 -60 60s27 60 60 60zM190 619c33 0 60 -27 60 -60s-27 -60 -60 -60s-60 27 -60 60s27 60 60 60z" />
    <glyph glyph-name="ugrave" unicode="&#xf9;" horiz-adv-x="573" 
d="M363 -11v80c-91 -58 -141 -80 -179 -80c-73 0 -109 65 -109 137v167c0 39 -4 48 -21 56l-21 10v23l144 37h20v-255c0 -60 20 -99 65 -99c24 0 59 14 101 41v181c0 39 -6 49 -36 58l-46 14v23l184 37h20v-306c0 -50 5 -60 29 -60c9 0 17 1 30 6v-31l-162 -39h-19zM362 477
h-58l-177 189h161z" />
    <glyph glyph-name="yacute" unicode="&#xfd;" horiz-adv-x="521" 
d="M231 10l-135 275c-35 72 -52 91 -95 91v32h255v-32c-52 0 -60 -20 -41 -60l83 -172l76 154c21 43 8 77 -52 78v32h186v-32c-45 -10 -58 -22 -86 -79l-224 -456c-25 -50 -56 -74 -91 -74c-36 0 -63 24 -63 57c0 16 6 33 15 42c46 46 99 -16 152 100zM181 477l74 189h161
l-177 -189h-58z" />
    <glyph glyph-name="ydieresis" unicode="&#xff;" horiz-adv-x="521" 
d="M231 10l-135 275c-35 72 -52 91 -95 91v32h255v-32c-52 0 -60 -20 -41 -60l83 -172l76 154c21 43 8 77 -52 78v32h186v-32c-45 -10 -58 -22 -86 -79l-224 -456c-25 -50 -56 -74 -91 -74c-36 0 -63 24 -63 57c0 16 6 33 15 42c46 46 99 -16 152 100zM358 619
c33 0 60 -27 60 -60s-27 -60 -60 -60s-60 27 -60 60s27 60 60 60zM164 619c33 0 60 -27 60 -60s-27 -60 -60 -60s-60 27 -60 60s27 60 60 60z" />
    <glyph glyph-name="zcaron" unicode="&#x17e;" horiz-adv-x="510" 
d="M30 0v32l264 321h-139c-39 0 -55 -15 -86 -85h-33l33 168h33c-4 -17 1 -28 33 -28h334v-28l-267 -325h129c69 0 78 11 127 84h31l-47 -139h-412zM256 560l75 106h80l-80 -189h-148l-84 189h78z" />
    <glyph glyph-name="twodotenleader" unicode="&#x2025;" horiz-adv-x="500" 
d="M45 56c0 37 32 68 80 68c41 0 81 -23 81 -66c0 -48 -48 -68 -82 -68c-41 0 -79 26 -79 66zM294 56c0 37 32 68 80 68c41 0 81 -23 81 -66c0 -48 -48 -68 -82 -68c-41 0 -79 26 -79 66z" />
    <glyph glyph-name="onedotenleader" unicode="&#x2024;" horiz-adv-x="500" 
d="M169 56c0 37 32 68 80 68c41 0 81 -23 81 -66c0 -48 -48 -68 -82 -68c-41 0 -79 26 -79 66z" />
    <glyph glyph-name="colonmonetary" unicode="&#x20a1;" horiz-adv-x="740" 
d="M537 623l45 147h56l-50 -164c26 -10 29 -11 38 -11c11 0 16 6 20 11h24l9 -175h-39c-7 21 -22 68 -71 111l-153 -504c7 -1 21 -3 37 -3c79 0 162 41 208 144h40c-9 -58 -36 -137 -57 -181c-18 5 -39 7 -58 7s-105 -14 -122 -16c-30 -3 -47 -3 -64 -3l-24 -79h-56l25 85
c-24 3 -52 10 -92 25l-33 -110h-56l41 135c-97 58 -154 165 -154 267c0 165 136 301 333 324l42 136h56l-41 -133c50 -1 78 -8 96 -13zM364 53l157 518c-30 12 -63 16 -95 14l-145 -477c23 -22 49 -41 83 -55zM241 161l125 414c-113 -34 -166 -146 -166 -254
c0 -86 28 -137 41 -160z" />
    <glyph glyph-name="figuredash" unicode="&#x2012;" horiz-adv-x="500" 
d="M16 295h470v-90h-470v90z" />
    <glyph glyph-name="oneeighth" unicode="&#x215b;" horiz-adv-x="823" 
d="M676 183c26 -12 75 -41 75 -90c0 -56 -60 -99 -128 -99c-55 0 -124 31 -124 89c0 33 22 55 65 76c-29 23 -59 47 -59 85c0 46 47 89 119 89c62 0 118 -35 118 -79c0 -42 -45 -63 -66 -71zM648 198c24 19 25 43 25 54c0 28 -12 56 -51 56c-19 0 -47 -9 -47 -41
c0 -15 2 -38 73 -69zM598 141c-5 0 -26 -18 -26 -56c0 -14 3 -65 53 -65c19 0 55 8 55 48c0 19 -8 30 -14 35c-20 19 -66 38 -68 38zM149 -28l445 667h71l-445 -667h-71zM235 634v-283c0 -16 3 -26 18 -26h40v-23h-199v23h35c17 0 21 9 21 27v207c-6 -3 -33 -16 -67 -24
l-11 21c49 20 89 46 120 78h43z" />
    <glyph glyph-name="threeeighths" unicode="&#x215c;" horiz-adv-x="823" 
d="M686 183c26 -12 75 -41 75 -90c0 -56 -60 -99 -128 -99c-55 0 -124 31 -124 89c0 33 22 55 65 76c-29 23 -59 47 -59 85c0 46 47 89 119 89c62 0 118 -35 118 -79c0 -42 -45 -63 -66 -71zM658 198c24 19 25 43 25 54c0 28 -12 56 -51 56c-19 0 -47 -9 -47 -41
c0 -15 2 -38 73 -69zM608 141c-5 0 -26 -18 -26 -56c0 -14 3 -65 53 -65c19 0 55 8 55 48c0 19 -8 30 -14 35c-20 19 -66 38 -68 38zM144 -28l446 666h70l-445 -666h-71zM148 455l-14 22c11 6 62 37 62 76c0 17 -11 35 -36 35c-30 0 -46 -26 -54 -39l-26 10
c22 58 74 75 111 75c50 0 86 -28 86 -61c0 -37 -38 -59 -55 -69c66 -8 83 -54 83 -88c0 -82 -81 -122 -152 -122c-52 0 -91 22 -91 46c0 14 13 30 38 30c23 0 31 -11 43 -26c8 -10 17 -20 36 -20c30 0 45 33 45 66c0 42 -22 70 -54 70c-8 0 -17 -2 -22 -5z" />
    <glyph glyph-name="fiveeighths" unicode="&#x215d;" horiz-adv-x="823" 
d="M685 183c26 -12 75 -41 75 -90c0 -56 -60 -99 -128 -99c-55 0 -124 31 -124 89c0 33 22 55 65 76c-29 23 -59 47 -59 85c0 46 47 89 119 89c62 0 118 -35 118 -79c0 -42 -45 -63 -66 -71zM657 198c24 19 25 43 25 54c0 28 -12 56 -51 56c-19 0 -47 -9 -47 -41
c0 -15 2 -38 73 -69zM607 141c-5 0 -26 -18 -26 -56c0 -14 3 -65 53 -65c19 0 55 8 55 48c0 19 -8 30 -14 35c-20 19 -66 38 -68 38zM139 -28l445 666h71l-446 -666h-70zM88 459l8 166h135c12 0 15 4 18 9h30l-12 -64h-139l-2 -54c6 2 11 3 18 4c6 1 14 1 23 1
c88 0 135 -54 135 -111c0 -68 -65 -116 -150 -116c-50 0 -88 19 -88 45c0 13 11 29 37 29c25 0 36 -16 43 -27c6 -8 14 -19 29 -19c23 0 48 22 48 64c0 33 -16 73 -65 73c-22 0 -37 -7 -45 -11z" />
    <glyph glyph-name="seveneighths" unicode="&#x215e;" horiz-adv-x="823" 
d="M673 183c26 -12 75 -41 75 -90c0 -56 -60 -99 -128 -99c-55 0 -124 31 -124 89c0 33 22 55 65 76c-29 23 -59 47 -59 85c0 46 47 89 119 89c62 0 118 -35 118 -79c0 -42 -45 -63 -66 -71zM645 198c24 19 25 43 25 54c0 28 -12 56 -51 56c-19 0 -47 -9 -47 -41
c0 -15 2 -38 73 -69zM595 141c-5 0 -26 -18 -26 -56c0 -14 3 -65 53 -65c19 0 55 8 55 48c0 19 -8 30 -14 35c-20 19 -66 38 -68 38zM116 -28l445 666h71l-446 -666h-70zM125 294l133 266h-111c-30 0 -35 0 -42 -30h-32l9 96h250v-25l-137 -307h-70z" />
    <glyph glyph-name="onethird" unicode="&#x2153;" horiz-adv-x="823" 
d="M157 -28l445 667h70l-444 -667h-71zM237 634v-281c0 -16 1 -28 22 -28h36v-23h-199v23h35c17 0 21 13 21 29v205c-6 -3 -33 -16 -67 -24l-11 21c49 20 89 46 120 78h43zM592 156l-14 21c11 6 62 37 62 76c0 17 -11 35 -36 35c-30 0 -46 -26 -54 -39l-26 10
c22 58 74 75 111 75c50 0 86 -28 86 -61c0 -37 -38 -59 -55 -69c66 -8 83 -54 83 -88c0 -82 -81 -122 -152 -122c-52 0 -91 22 -91 46c0 14 13 30 38 30c23 0 31 -11 43 -26c8 -10 17 -20 36 -20c30 0 45 33 45 66c0 42 -22 70 -54 70c-8 0 -16 -2 -22 -4z" />
    <glyph glyph-name="twothirds" unicode="&#x2154;" horiz-adv-x="823" 
d="M171 -28l445 666h70l-445 -666h-70zM63 302v22c29 26 104 99 118 114c37 43 38 71 38 84c0 31 -13 63 -53 63c-29 0 -56 -21 -63 -56h-34c10 68 64 105 123 105c64 0 110 -41 110 -95c0 -47 -36 -78 -63 -100c-62 -50 -69 -56 -91 -77h93c31 0 38 3 46 39h30l-12 -99
h-242zM604 156l-14 21c11 6 62 37 62 76c0 17 -11 35 -36 35c-30 0 -46 -26 -54 -39l-26 10c22 58 74 75 111 75c50 0 86 -28 86 -61c0 -37 -38 -59 -55 -69c66 -8 83 -54 83 -88c0 -82 -81 -122 -152 -122c-52 0 -91 22 -91 46c0 14 13 30 38 30c23 0 31 -11 43 -26
c8 -10 17 -20 36 -20c30 0 45 33 45 66c0 42 -22 70 -54 70c-8 0 -16 -2 -22 -4z" />
    <glyph glyph-name="dollar.superior" unicode="&#xf6e4;" horiz-adv-x="292" 
d="M126 326v117c-44 21 -101 48 -101 102c0 60 61 82 101 87v21h30v-20c61 -5 103 -35 103 -63c0 -17 -18 -29 -37 -29c-12 0 -32 6 -40 27c-10 26 -12 31 -26 38v-95c64 -29 116 -53 116 -110c0 -52 -46 -92 -116 -100v-42h-30v42c-66 5 -111 39 -111 72c0 21 20 32 38 32
c31 0 38 -23 43 -39c8 -30 16 -36 30 -40zM126 526v83c-16 -4 -34 -15 -34 -37c0 -26 24 -40 34 -46zM156 429v-104c28 6 44 29 44 51c0 29 -31 46 -44 53z" />
    <glyph glyph-name="parenleft.superior" unicode="&#x207d;" horiz-adv-x="229" 
d="M182 656h39c-37 -41 -93 -104 -93 -255c0 -97 20 -175 91 -252h-39c-47 39 -143 118 -143 255c0 102 63 190 145 252z" />
    <glyph glyph-name="parenright.superior" unicode="&#x207e;" horiz-adv-x="229" 
d="M8 656h38c80 -61 146 -147 146 -251c0 -140 -96 -219 -144 -256h-38c72 78 91 158 91 253c0 149 -56 213 -93 254z" />
    <glyph glyph-name="comma.superior" unicode="&#xf6e2;" horiz-adv-x="198" 
d="M48 180l-7 31c72 4 72 43 72 47s-1 6 -5 6c-5 0 -15 -2 -21 -2c-41 0 -54 25 -54 43c0 23 20 43 56 43c40 0 76 -23 76 -72c0 -51 -39 -97 -117 -96z" />
    <glyph glyph-name="fi" unicode="&#xfb01;" horiz-adv-x="583" 
d="M206 356v-258c0 -46 12 -66 67 -66v-32h-253v32c48 0 64 12 64 70v254h-64v20l64 32c0 163 137 264 259 264c61 0 128 -37 128 -56c0 -9 0 -12 -9 -23l-31 -38c-6 -7 -13 -12 -20 -12c-29 0 -68 74 -128 74c-48 0 -77 -38 -77 -115v-94h99v-28l170 50h21v-335
c0 -50 24 -63 57 -63v-32h-234v32c38 0 55 19 55 63v228c0 21 -2 33 -19 33h-16h-133z" />
    <glyph glyph-name="period.superior" unicode="&#xf6e8;" horiz-adv-x="198" 
d="M41 302c0 32 31 46 58 46s58 -14 58 -43s-33 -44 -59 -44c-35 0 -57 23 -57 41z" />
    <glyph glyph-name="a.superior" 
d="M178 435v23c0 22 -15 40 -39 40c-13 0 -35 -6 -35 -34c0 -4 0 -8 1 -12l-73 -24c-2 6 -3 12 -3 20c0 64 112 74 124 74c35 0 75 -17 91 -35c13 -15 14 -38 14 -49v-105c0 -7 0 -26 14 -26c5 0 10 2 18 7l10 -14c-17 -16 -49 -36 -74 -36c-6 0 -37 0 -45 36
c-4 -2 -18 -15 -21 -16c-22 -18 -42 -20 -59 -20c-54 0 -76 31 -76 63c0 33 22 57 55 67c69 22 77 25 98 41zM179 323v85c-12 -8 -16 -10 -41 -21c-24 -11 -34 -23 -34 -48c0 -28 15 -41 32 -41c15 0 35 18 43 25z" />
    <glyph glyph-name="b.superior" unicode="&#xf6ea;" horiz-adv-x="373" 
d="M51 283v302c0 21 0 29 -24 37l-17 7v14l99 29h21v-199c14 12 32 24 51 33c19 10 40 16 57 16c56 0 104 -48 104 -115c0 -83 -72 -143 -162 -143c-45 0 -111 14 -129 19zM130 444v-72c0 -28 1 -82 60 -82c10 0 24 1 38 10c27 16 35 47 35 81c0 66 -39 94 -76 94
c-24 0 -46 -17 -57 -31z" />
    <glyph glyph-name="cent.superior" unicode="&#xf6e0;" 
d="M134 302l-38 -82h-36l41 89c-61 23 -73 66 -73 96c0 63 64 125 173 120l28 60h36l-31 -65c20 -6 48 -18 48 -40c0 -15 -13 -29 -37 -29c-19 0 -30 8 -36 13l-56 -121c4 -4 18 -10 34 -10c31 0 51 18 72 38l26 -12c-36 -47 -85 -59 -127 -59c-8 0 -16 1 -24 2zM129 371
l54 116c-7 5 -12 9 -21 9c-30 0 -43 -40 -43 -74c0 -24 6 -40 10 -51z" />
    <glyph glyph-name="d.superior" unicode="&#xf6eb;" horiz-adv-x="373" 
d="M316 671v-322c0 -22 0 -44 24 -44c3 0 11 0 23 3v-18l-108 -26h-18v47c-54 -44 -85 -47 -104 -47c-58 0 -106 43 -106 113c0 55 35 145 152 145c27 0 49 -5 58 -7v68c0 22 0 36 -43 43v15l100 30h22zM237 338v135c-15 12 -32 25 -61 25c-65 0 -70 -66 -70 -89
c0 -57 26 -101 73 -101c24 0 49 19 58 30z" />
    <glyph glyph-name="e.superior" unicode="&#xf6ec;" 
d="M292 401h-181c4 -57 44 -94 81 -94c27 0 55 19 80 43l14 -11c-24 -31 -74 -76 -139 -76c-68 0 -119 47 -119 126c0 91 73 133 139 133c49 0 98 -24 109 -75c5 -23 6 -25 16 -33v-13zM109 420h93c0 48 -19 74 -46 74c-32 0 -47 -32 -47 -74z" />
    <glyph glyph-name="i.superior" unicode="&#xf6ed;" horiz-adv-x="188" 
d="M132 527v-191c0 -29 8 -47 40 -47v-19h-162v19c35 0 43 11 43 42v113c0 17 0 22 -22 30l-22 6v14l101 33h22zM38 627c0 25 26 42 53 42c31 0 50 -21 50 -41c0 -25 -27 -41 -52 -41c-27 0 -51 16 -51 40z" />
    <glyph glyph-name="l.superior" unicode="&#xf6ee;" horiz-adv-x="177" 
d="M128 671v-335c0 -31 8 -47 39 -47v-19h-161v19c36 0 43 12 43 42v247c0 22 0 31 -17 36l-28 10v17l102 30h22z" />
    <glyph glyph-name="m.superior" unicode="&#xf6ef;" horiz-adv-x="604" 
d="M343 435v-98c0 -22 0 -48 37 -48v-19h-153v19c37 0 37 26 37 42v86c0 27 -5 60 -39 60c-29 0 -61 -18 -92 -43v-97c0 -25 0 -48 44 -48v-19h-164v19c38 0 41 18 41 42v113c0 16 0 22 -28 31l-14 5v14l100 35h21v-73c43 33 72 48 93 56c22 9 36 10 48 10
c14 0 31 -4 45 -17c18 -16 20 -33 22 -49c3 6 26 22 54 37c29 15 63 29 90 29c61 0 68 -57 68 -103v-73c0 -42 0 -57 37 -57v-19h-153v19c32 3 37 26 37 79v36c0 31 -3 73 -41 73c-14 0 -38 -3 -90 -42z" />
    <glyph glyph-name="n.superior" unicode="&#x207f;" horiz-adv-x="373" 
d="M9 494l103 34h21v-51c5 3 24 14 47 24c24 11 51 21 73 21c67 0 68 -67 68 -102v-74c0 -44 0 -57 37 -57v-19h-153v19c30 4 37 24 37 80v36c0 22 0 72 -39 72c-26 0 -46 -12 -70 -26v-114c0 -28 4 -33 6 -36c5 -6 20 -12 29 -12h9v-19h-165v19c34 0 42 12 42 42v113
c0 11 0 17 -8 22c-7 4 -17 9 -27 11l-10 2v15z" />
    <glyph glyph-name="o.superior" horiz-adv-x="375" 
d="M29 390c0 72 65 132 164 132c85 0 153 -49 153 -125c0 -68 -61 -133 -163 -133c-92 0 -154 53 -154 126zM115 426c0 -44 19 -137 86 -137c59 0 59 61 59 75c0 54 -22 133 -84 133c-29 0 -61 -17 -61 -71z" />
    <glyph glyph-name="r.superior" unicode="&#xf6f1;" horiz-adv-x="260" 
d="M16 492l100 37h20v-72c30 55 39 65 56 65c10 0 19 -3 29 -6l37 -13c-5 -15 -14 -41 -31 -65l-30 10c-6 2 -16 5 -22 5c-10 0 -21 -3 -39 -28v-89c0 -25 0 -47 44 -47h17v-19h-181v19c38 0 41 18 41 42v99c0 27 -4 33 -24 41l-17 6v15z" />
    <glyph glyph-name="s.superior" unicode="&#xf6f2;" horiz-adv-x="240" 
d="M33 265l-7 76h20c5 -11 23 -51 67 -51c22 0 34 14 34 28c0 16 -10 22 -58 50c-40 24 -63 43 -63 77c0 33 25 77 101 77c33 0 60 -9 72 -13l2 -64h-21c-16 45 -45 52 -61 52c-15 0 -29 -9 -29 -23c0 -19 20 -31 47 -46c50 -26 81 -43 81 -88c0 -42 -33 -76 -85 -76
c-27 0 -57 8 -68 8c-6 0 -10 -3 -14 -7h-18z" />
    <glyph glyph-name="t.superior" unicode="&#xf6f3;" horiz-adv-x="219" 
d="M127 484v-134c0 -21 0 -45 30 -45c15 0 27 7 39 19l14 -12c-11 -16 -42 -48 -89 -48c-73 0 -73 59 -73 91v130h-35v12c26 9 76 44 96 93h18v-74h86l-9 -32h-77z" />
    <glyph glyph-name="parenleft.inferior" unicode="&#x208d;" horiz-adv-x="229" 
d="M181 343h38c-38 -43 -91 -106 -91 -251c0 -86 15 -168 90 -248h-39c-47 39 -141 116 -141 251c0 100 63 186 143 248z" />
    <glyph glyph-name="parenright.inferior" unicode="&#x208e;" horiz-adv-x="229" 
d="M10 343h38c80 -62 143 -148 143 -248c0 -136 -97 -215 -141 -251h-39c72 77 90 157 90 248c0 145 -54 209 -91 251z" />
    <glyph glyph-name="hyphen.superior" unicode="&#xf6e6;" horiz-adv-x="271" 
d="M18 360v66h236v-66h-236z" />
    <glyph glyph-name="one.fitted" unicode="&#xf6dc;" horiz-adv-x="424" 
d="M273 637v-550c0 -37 9 -53 41 -53h60v-34h-318v34h52c33 0 43 16 43 49v429c-30 -20 -79 -42 -118 -53l-13 30c78 38 144 87 197 148h56z" />
    <glyph glyph-name="R_p" unicode="&#xf6dd;" horiz-adv-x="1310" 
d="M251 264v-138c0 -53 2 -87 87 -87h22v-39h-350v39h16c84 0 87 33 87 87v369c0 71 -13 87 -100 87v39c84 7 209 16 295 16c98 0 152 -8 201 -25c73 -24 121 -85 121 -158c0 -85 -69 -140 -148 -162c39 -33 55 -56 111 -134c6 -7 45 -59 86 -92c32 -27 62 -33 107 -37v-39
c-212 -5 -252 12 -337 129c-68 92 -80 108 -119 145h-79zM251 594v-291c110 -2 229 8 229 149c0 129 -110 144 -187 144c-19 0 -30 -1 -42 -2zM938 2v-107c0 -66 17 -86 99 -91v-31h-287v31h12c39 0 54 18 54 66v410c0 28 -8 41 -27 48l-37 13v25l160 54h26v-86
c57 45 109 86 167 86c92 0 163 -82 163 -190c0 -111 -75 -241 -228 -241c-31 0 -62 4 -102 13zM938 293v-218c29 -30 68 -49 103 -49c61 0 104 60 104 147c0 89 -37 171 -109 171c-28 0 -59 -16 -98 -51z" />
    <glyph glyph-name="hyphen.inferior" unicode="&#xf6e5;" horiz-adv-x="271" 
d="M20 51v65h233v-65h-233z" />
    <glyph glyph-name="zero.superior" unicode="&#x2070;" 
d="M28 571c0 84 38 171 128 171c75 0 129 -63 129 -172c0 -120 -69 -167 -129 -167c-74 0 -128 69 -128 168zM115 619v-80c0 -81 8 -111 42 -111c33 0 41 30 41 111v80c0 59 -7 98 -42 98c-33 0 -40 -37 -41 -98z" />
    <glyph glyph-name="one.superior" 
d="M207 743v-283c0 -16 3 -26 18 -26h40v-23h-199v23h35c17 0 21 9 21 27v207c-6 -3 -33 -16 -67 -24l-11 21c49 20 89 46 120 78h43z" />
    <glyph glyph-name="two.superior" 
d="M21 411v22c29 26 104 99 118 114c37 43 38 71 38 84c0 31 -13 63 -53 63c-29 0 -56 -21 -63 -56h-34c10 68 64 105 123 105c64 0 110 -41 110 -95c0 -47 -36 -78 -63 -100c-62 -50 -69 -56 -91 -77h93c31 0 38 3 46 39h30l-12 -99h-242z" />
    <glyph glyph-name="three.superior" 
d="M105 564l-14 22c11 6 62 37 62 76c0 17 -11 35 -36 35c-30 0 -46 -26 -54 -39l-26 10c22 58 74 75 111 75c50 0 86 -28 86 -61c0 -37 -38 -59 -55 -69c66 -8 83 -54 83 -88c0 -82 -81 -122 -152 -122c-52 0 -91 22 -91 46c0 14 13 30 38 30c23 0 31 -11 43 -26
c8 -10 17 -20 36 -20c30 0 45 33 45 66c0 42 -22 70 -54 70c-8 0 -16 -2 -22 -5z" />
    <glyph glyph-name="four.superior" unicode="&#x2074;" 
d="M149 403v87h-127v26l171 226h41v-212h50v-40h-50v-87h-85zM72 530h77v102z" />
    <glyph glyph-name="five.superior" unicode="&#x2075;" 
d="M53 568l8 166h135c12 0 15 4 18 9h30l-12 -64h-139l-2 -54c5 2 11 3 18 4c8 1 16 1 23 1c88 0 135 -54 135 -111c0 -68 -65 -116 -150 -116c-50 0 -88 19 -88 45c0 18 16 29 37 29c25 0 36 -16 43 -27c6 -8 14 -19 29 -19c23 0 48 22 48 64c0 33 -16 73 -65 73
c-22 0 -37 -7 -45 -11z" />
    <glyph glyph-name="six.superior" unicode="&#x2076;" 
d="M241 743l15 -21c-19 -6 -48 -14 -81 -43c-29 -26 -35 -45 -43 -74c10 4 33 9 49 9c42 0 106 -22 106 -101c0 -77 -67 -110 -124 -110c-71 0 -132 48 -132 137c0 129 125 193 210 203zM201 508c0 37 -5 76 -38 76c-7 0 -19 -4 -31 -8c-10 -4 -13 -8 -13 -42
c0 -39 0 -106 42 -106c35 0 40 36 40 80z" />
    <glyph glyph-name="seven.superior" unicode="&#x2077;" 
d="M76 403l133 266h-111c-30 0 -35 0 -42 -30h-32l9 96h250v-25l-137 -307h-70z" />
    <glyph glyph-name="eight.superior" unicode="&#x2078;" 
d="M205 592c26 -12 75 -41 75 -90c0 -56 -60 -99 -128 -99c-55 0 -124 31 -124 89c0 33 22 55 65 76c-29 23 -59 47 -59 85c0 46 47 89 119 89c62 0 118 -35 118 -79c0 -42 -45 -63 -66 -71zM177 607c24 19 25 43 25 54c0 28 -12 56 -51 56c-19 0 -47 -9 -47 -41
c0 -15 2 -38 73 -69zM127 550c-5 0 -26 -18 -26 -56c0 -14 3 -65 53 -65c19 0 55 8 55 48c0 19 -8 30 -14 35c-20 19 -66 38 -68 38z" />
    <glyph glyph-name="nine.superior" unicode="&#x2079;" 
d="M74 403l-18 23c24 6 58 16 90 50c5 6 30 34 40 69c-12 -5 -29 -12 -53 -12c-68 0 -107 47 -107 100c0 58 48 110 125 110c71 0 133 -46 133 -136c0 -44 -12 -107 -95 -161c-39 -26 -76 -35 -115 -43zM152 718c-32 0 -39 -30 -39 -79c0 -56 11 -76 36 -76c13 0 30 5 43 14
c2 15 4 35 4 58c0 11 -1 83 -44 83z" />
    <glyph glyph-name="zero.inferior" unicode="&#x2080;" 
d="M28 49c0 84 38 171 128 171c75 0 129 -63 129 -172c0 -120 -69 -167 -129 -167c-74 0 -128 69 -128 168zM115 97v-80c0 -81 8 -111 42 -111c33 0 41 30 41 111v80c0 59 -7 98 -42 98c-33 0 -40 -37 -41 -98z" />
    <glyph glyph-name="one.inferior" unicode="&#x2081;" 
d="M207 222v-282c0 -18 1 -29 22 -30h36v-23h-199v23h35c17 1 21 13 21 30v207c-6 -3 -33 -16 -67 -24l-11 21c49 20 89 46 120 78h43z" />
    <glyph glyph-name="two.inferior" unicode="&#x2082;" 
d="M21 -113v22c29 26 104 99 118 115c37 42 38 70 38 85c0 31 -13 63 -53 63c-29 0 -56 -21 -63 -56h-34c10 68 64 105 123 105c64 0 110 -41 110 -95c0 -49 -36 -80 -63 -102c-62 -50 -69 -56 -91 -77h93c31 0 38 3 46 39h30l-12 -99h-242z" />
    <glyph glyph-name="three.inferior" unicode="&#x2083;" 
d="M105 43l-14 21c11 6 62 37 62 76c0 17 -11 35 -36 35c-30 0 -46 -26 -54 -39l-26 10c22 58 74 75 111 75c50 0 86 -28 86 -61c0 -37 -38 -59 -55 -69c66 -8 83 -54 83 -88c0 -82 -81 -122 -152 -122c-52 0 -91 22 -91 46c0 14 13 30 38 30c23 0 31 -11 43 -26
c8 -10 17 -20 36 -20c30 0 45 33 45 66c0 42 -22 70 -54 70c-8 0 -17 -2 -22 -4z" />
    <glyph glyph-name="four.inferior" unicode="&#x2084;" 
d="M149 -119v87h-127v26l171 226h41v-212h50v-40h-50v-87h-85zM72 8h77v102z" />
    <glyph glyph-name="five.inferior" unicode="&#x2085;" 
d="M53 46l8 168h135c12 0 15 4 18 9h30l-12 -64h-139l-2 -56c11 3 22 5 41 5c88 0 135 -54 135 -111c0 -68 -65 -116 -150 -116c-50 0 -88 19 -88 45c0 13 11 29 37 29c25 0 36 -16 43 -27c6 -8 14 -19 29 -19c23 0 48 22 48 64c0 33 -16 73 -65 73c-22 0 -37 -7 -45 -11z
" />
    <glyph glyph-name="six.inferior" unicode="&#x2086;" 
d="M241 221l15 -21c-19 -6 -48 -14 -81 -43c-29 -26 -35 -45 -43 -74c10 4 33 9 49 9c42 0 106 -22 106 -101c0 -77 -67 -110 -124 -110c-71 0 -132 48 -132 137c0 129 125 193 210 203zM201 -14c0 37 -5 76 -38 76c-7 0 -20 -4 -31 -8c-10 -4 -13 -8 -13 -42
c0 -39 0 -106 42 -106c35 0 40 36 40 80z" />
    <glyph glyph-name="seven.inferior" unicode="&#x2087;" 
d="M76 -119l133 267h-111c-30 0 -35 0 -42 -30h-32l9 96h250v-25l-137 -308h-70z" />
    <glyph glyph-name="eight.inferior" unicode="&#x2088;" 
d="M205 70c26 -12 75 -41 75 -90c0 -56 -60 -99 -128 -99c-55 0 -124 31 -124 89c0 33 22 55 65 76c-29 23 -59 47 -59 85c0 46 47 89 119 89c62 0 118 -35 118 -79c0 -42 -45 -63 -66 -71zM177 85c24 19 25 43 25 54c0 28 -12 56 -51 56c-19 0 -47 -9 -47 -41
c0 -15 2 -38 73 -69zM127 28c-5 0 -26 -18 -26 -56c0 -14 3 -65 53 -65c19 0 55 8 55 48c0 19 -8 30 -14 35c-20 19 -66 38 -68 38z" />
    <glyph glyph-name="nine.inferior" unicode="&#x2089;" 
d="M74 -119l-18 23c24 6 58 16 90 50c5 6 30 34 40 69c-12 -5 -29 -12 -53 -12c-68 0 -107 47 -107 100c0 58 48 110 125 110c71 0 133 -46 133 -136c0 -44 -12 -107 -95 -161c-39 -26 -76 -35 -115 -43zM152 196c-32 0 -39 -30 -39 -79c0 -56 11 -76 36 -76
c13 0 30 5 43 14c2 15 4 35 4 58c0 11 -1 83 -44 83z" />
    <glyph glyph-name="cent.inferior" unicode="&#xf6df;" 
d="M134 -4l-38 -82h-36l41 89c-61 23 -73 66 -73 96c0 63 64 125 173 120l28 60h36l-31 -65c20 -6 48 -18 48 -40c0 -15 -13 -29 -37 -29c-19 0 -30 8 -36 13l-56 -121c15 -10 29 -10 34 -10c35 0 60 25 72 38l26 -12c-36 -47 -85 -59 -127 -59c-8 0 -16 1 -24 2zM129 65
l54 116c-7 5 -12 9 -21 9c-30 0 -43 -40 -43 -74c0 -24 6 -40 10 -51z" />
    <glyph glyph-name="dollar.inferior" unicode="&#xf6e3;" horiz-adv-x="292" 
d="M126 19v117c-44 21 -101 48 -101 102c0 60 61 82 101 87v21h30v-21c61 -4 103 -34 103 -62c0 -17 -18 -29 -37 -29c-12 0 -32 6 -40 27c-10 26 -12 32 -26 39v-96c64 -29 116 -53 116 -110c0 -52 -46 -92 -116 -100v-42h-30v42c-66 5 -111 39 -111 72c0 21 20 32 38 32
c31 0 38 -23 43 -39c8 -30 16 -36 30 -40zM126 219v81c-16 -4 -34 -13 -34 -35c0 -26 24 -40 34 -46zM156 122v-104c28 6 44 29 44 51c0 29 -31 46 -44 53z" />
    <glyph glyph-name="period.inferior" unicode="&#xf6e7;" horiz-adv-x="198" 
d="M41 -6c0 32 30 46 57 46c28 0 58 -14 58 -43c0 -28 -32 -43 -59 -43c-35 0 -56 23 -56 40z" />
    <glyph glyph-name="comma.inferior" unicode="&#xf6e1;" horiz-adv-x="198" 
d="M48 -128l-7 31c72 4 72 43 72 47s-1 6 -5 6c-5 0 -15 -2 -21 -2c-41 0 -54 25 -54 43c0 23 20 43 56 43c40 0 76 -23 76 -72c0 -51 -39 -97 -117 -96z" />
    <glyph glyph-name="Delta" unicode="&#x2206;" horiz-adv-x="588" 
d="M555 0h-524v32l233 592l49 12l242 -604v-32zM417 55l-165 422l-161 -422h326z" />
    <glyph glyph-name="Omega" unicode="&#x2126;" horiz-adv-x="654" 
d="M624 150l-24 -150h-224l-8 19c36 88 99 213 99 331c-1 187 -65 252 -142 252c-80 0 -138 -58 -138 -256c0 -114 54 -231 97 -327l-9 -19h-224l-22 150l29 1c20 -55 33 -65 71 -65h85c-62 50 -155 128 -155 268c0 173 116 282 269 282c155 0 266 -105 266 -276
c0 -128 -89 -209 -161 -274h95c35 0 47 9 66 65z" />
    <glyph glyph-name="uni03BC" unicode="&#x3bc;" horiz-adv-x="552" 
d="M62 408h122v-290c0 -45 27 -65 56 -65c30 0 69 18 94 59v296h122v-298c0 -29 10 -50 33 -50c24 0 33 21 38 70h20c-1 -43 -7 -66 -24 -90c-23 -34 -62 -54 -102 -54c-51 0 -67 25 -84 77c-48 -55 -103 -77 -154 -77c-27 0 -43 6 -74 28c0 -90 29 -121 29 -164
c0 -40 -23 -65 -59 -65c-33 0 -52 21 -52 58c0 64 35 102 35 251v314z" />
    <glyph glyph-name="pi" unicode="&#x3c0;" horiz-adv-x="523" 
d="M475 434l26 -7c-5 -38 -22 -86 -34 -103c-15 -5 -34 -6 -57 -6c-5 -59 -5 -119 -4 -181c0 -58 12 -80 35 -80c16 0 26 8 41 21l11 -24c-22 -38 -65 -66 -105 -66c-50 0 -92 26 -92 123c0 85 5 141 9 210c-45 0 -81 1 -116 1v-10c0 -211 -44 -288 -59 -307
c-21 -9 -46 -15 -63 -17l-7 20c65 90 85 227 85 316c-55 0 -76 -11 -114 -35l-15 27c28 35 62 92 163 91c69 -1 158 -3 242 -3c30 0 40 6 54 30z" />
    <glyph glyph-name="Euro" unicode="&#x20ac;" horiz-adv-x="500" 
d="M352 596c-116 0 -132 -148 -137 -219h260l-7 -38h-255c-1 -26 0 -39 0 -52h247l-8 -38h-236c7 -82 36 -218 154 -218c63 0 100 32 148 96l23 -16c-76 -115 -145 -126 -198 -126c-153 0 -235 137 -254 264h-59l7 38h49c-1 13 -1 34 1 52h-57l7 38h55
c22 139 124 259 256 259c34 0 70 -9 107 -29c18 -10 20 -10 26 -11c4 1 10 3 15 10h17l5 -149h-32c-13 61 -53 139 -134 139z" />
    <glyph glyph-name="afii61289" unicode="&#x2113;" horiz-adv-x="398" 
d="M361 123l22 -20c-38 -72 -92 -116 -166 -116c-51 0 -83 15 -102 37c-22 27 -33 52 -33 135v63l-51 -35l-13 28l63 47v125c0 132 12 180 49 227c28 38 63 56 99 56c62 0 94 -56 94 -126c0 -105 -50 -177 -133 -258v-75c0 -117 20 -156 74 -156c42 0 73 33 97 68zM190 436
v-99c41 48 71 122 71 205c0 57 -11 96 -36 96c-29 0 -35 -42 -35 -202z" />
    <glyph glyph-name="estimated" unicode="&#x212e;" horiz-adv-x="784" 
d="M752 302h-584c-3 0 -5 -1 -5 -4v-177c0 -8 3 -14 8 -20c56 -59 134 -96 221 -96c93 0 176 42 233 107h51c-64 -76 -169 -125 -285 -125c-199 0 -361 145 -361 324s162 325 361 325c200 0 361 -146 361 -325v-9zM620 325v178c0 8 -3 15 -9 21c-57 56 -134 92 -219 92
c-86 0 -164 -37 -220 -95c-6 -6 -9 -13 -9 -22v-174c0 -2 2 -6 5 -6h448c3 0 4 4 4 6z" />
    <glyph glyph-name="partialdiff" unicode="&#x2202;" horiz-adv-x="495" 
d="M242 390h1c38 0 82 -16 109 -53c4 29 9 66 10 101c3 44 -1 93 -21 137c-17 36 -53 65 -104 65c-50 0 -97 -31 -129 -59c-17 0 -45 52 -35 77c32 19 72 36 131 36c91 0 156 -50 199 -131c38 -71 48 -158 48 -216c0 -73 -13 -158 -45 -221c-38 -82 -104 -139 -198 -139
c-102 0 -171 68 -171 181c0 64 26 120 56 154c35 41 89 68 149 68zM269 347h-1c-28 0 -57 -9 -82 -51c-27 -47 -41 -121 -41 -187c0 -55 23 -89 65 -89c40 0 70 53 89 96c23 54 34 103 44 178c-9 21 -37 53 -74 53z" />
    <glyph glyph-name="product" unicode="&#x220f;" horiz-adv-x="645" 
d="M620 632v-30c-78 -6 -84 -15 -84 -83v-477c0 -74 7 -82 83 -89v-30h-265v30c65 6 69 11 69 89v520c0 29 -5 33 -34 33h-137c-27 0 -31 -3 -31 -30v-523c0 -72 0 -83 62 -89v-30h-258v30c74 6 82 15 82 89v477c0 70 -7 77 -85 83v30h598z" />
    <glyph glyph-name="summation" unicode="&#x2211;" horiz-adv-x="510" 
d="M490 111l-43 -195h-423v29l197 290l-193 368v29h419c1 -17 7 -95 11 -158l-31 -7c-8 39 -19 71 -32 94c-14 27 -30 35 -96 35h-135l152 -282l-200 -302h211c81 0 93 5 132 106z" />
    <glyph glyph-name="uni2219" unicode="&#x2219;" 
d="M156 379c46 0 81 -29 81 -67c0 -37 -33 -68 -81 -68s-80 31 -80 68c0 39 37 67 80 67z" />
    <glyph glyph-name="radical" unicode="&#x221a;" horiz-adv-x="509" 
d="M498 791l-159 -941l-25 -11l-192 493l-79 -36l-12 36l165 73l132 -359h2l124 754z" />
    <glyph glyph-name="infinity" unicode="&#x221e;" horiz-adv-x="685" 
d="M643 259v-1c0 -98 -70 -155 -143 -155c-50 0 -98 21 -157 99c-45 -56 -91 -99 -162 -99c-73 0 -140 61 -140 151c0 91 64 153 148 153c65 0 112 -37 157 -96c35 40 79 97 159 96c77 0 138 -58 138 -148zM189 168h2c48 0 83 43 117 83c-36 49 -66 93 -121 93
c-50 0 -80 -38 -80 -91c0 -46 36 -85 82 -85zM498 344h-1c-52 0 -90 -55 -118 -87c52 -67 79 -89 123 -89c48 0 74 48 74 85c0 52 -31 91 -78 91z" />
    <glyph glyph-name="integral" unicode="&#x222b;" horiz-adv-x="364" 
d="M146 -7l-19 361c-17 335 84 402 159 402c30 0 68 -17 68 -51c0 -36 -27 -53 -53 -53c-36 0 -32 56 -51 56c-17 0 -31 -24 -26 -137l18 -333c16 -314 -69 -428 -165 -428c-37 0 -66 24 -66 53c-1 34 31 57 61 57s29 -61 48 -61c24 0 31 52 26 134z" />
    <glyph glyph-name="approxequal" unicode="&#x2248;" horiz-adv-x="479" 
d="M402 407l44 -40c-28 -53 -71 -92 -121 -92c-35 0 -59 11 -96 34c-25 16 -46 29 -74 29c-38 0 -59 -31 -81 -63l-44 40c26 51 75 91 130 91c42 0 70 -18 91 -31c32 -20 49 -32 74 -32c32 0 54 26 77 64zM402 241l44 -40c-28 -53 -70 -93 -121 -93c-35 0 -61 12 -96 35
c-26 17 -47 30 -74 30c-39 0 -60 -33 -81 -64l-44 39c26 52 76 92 130 92c43 0 70 -19 91 -31c27 -16 46 -32 73 -32c34 0 53 25 78 64z" />
    <glyph glyph-name="notequal" unicode="&#x2260;" horiz-adv-x="479" 
d="M355 457l-33 -75h115v-69h-141l-50 -117h191v-69h-217l-43 -99l-54 22l33 77h-115v69h142l49 117h-191v69h217l42 97z" />
    <glyph glyph-name="lessequal" unicode="&#x2264;" horiz-adv-x="479" 
d="M435 92l-389 197v75l389 196v-80l-321 -152v-2l321 -153v-81zM438 -10h-395v70h395v-70z" />
    <glyph glyph-name="greaterequal" unicode="&#x2265;" horiz-adv-x="479" 
d="M48 560l389 -197v-74l-389 -197v81l320 153v1l-320 153v80zM437 -10h-394v70h394v-70z" />
    <glyph glyph-name="lozenge" unicode="&#x25ca;" horiz-adv-x="514" 
d="M471 303l-172 -367h-85l-172 367l174 369h83zM394 303l-135 297h-3l-136 -296l136 -299h3z" />
    <glyph glyph-name="uni00A0" unicode="&#xa0;" horiz-adv-x="333" 
 />
    <glyph glyph-name="uni00AD" unicode="&#xad;" horiz-adv-x="417" 
d="M35 153v98h346v-98h-346z" />
    <glyph glyph-name="uni02C9" unicode="&#x2c9;" horiz-adv-x="333" 
d="M6 524v80h321v-80h-321z" />
    <glyph glyph-name="zero.taboldstyle" unicode="&#xf643;" horiz-adv-x="469" 
d="M26 234c0 142 104 240 210 240c99 0 207 -86 207 -243c0 -152 -102 -243 -208 -243c-92 0 -209 79 -209 246zM130 235c0 -105 33 -188 102 -188c70 0 107 89 107 193c0 109 -46 175 -104 175c-62 0 -105 -69 -105 -180z" />
    <glyph glyph-name="one.taboldstyle" unicode="&#xf644;" horiz-adv-x="469" 
d="M76 459h316v-34c-95 -1 -96 -1 -96 -50v-284c0 -53 2 -55 96 -57v-34h-316v34c95 2 96 4 96 57v283c-1 50 -2 50 -96 51v34z" />
    <glyph glyph-name="two.taboldstyle" unicode="&#xf645;" horiz-adv-x="469" 
d="M439 182l-34 -182h-380v35l88 76c10 8 42 37 85 76c51 48 75 84 75 119c0 54 -47 86 -96 86c-60 0 -97 -31 -121 -51l-21 25c35 40 93 106 206 106c88 0 152 -47 152 -122c0 -81 -58 -129 -237 -244h164c52 0 54 4 85 76h34z" />
    <glyph glyph-name="three.taboldstyle" unicode="&#xf646;" horiz-adv-x="469" 
d="M86 350l-28 17c21 33 69 108 177 108c80 0 147 -45 147 -109c0 -76 -70 -116 -115 -141c44 -6 68 -13 93 -37c33 -33 46 -77 46 -122c0 -126 -98 -228 -228 -228c-72 0 -141 31 -141 84c0 36 33 52 56 52c18 0 40 -9 66 -46c15 -21 30 -43 62 -43c66 0 66 101 66 118
c0 62 -22 144 -93 144c-12 0 -27 -4 -36 -9l-11 32c95 65 115 122 115 156c0 42 -29 79 -83 79s-81 -37 -93 -55z" />
    <glyph glyph-name="four.taboldstyle" unicode="&#xf647;" horiz-adv-x="469" 
d="M350 474v-406h93v-68h-93v-164h-123v164h-206v45l280 429h49zM227 68v222l-144 -222h144z" />
    <glyph glyph-name="five.taboldstyle" unicode="&#xf648;" horiz-adv-x="469" 
d="M382 462l-31 -100h-212l-13 -62c42 -5 122 -13 190 -56c63 -41 98 -105 98 -169c0 -129 -128 -239 -274 -239c-38 0 -108 8 -108 65c0 31 25 56 53 56c18 0 27 -3 60 -27c20 -13 54 -35 83 -35c47 0 93 56 93 122c0 32 -10 100 -96 139c-40 19 -95 25 -159 32l53 274h263
z" />
    <glyph glyph-name="six.taboldstyle" unicode="&#xf649;" horiz-adv-x="469" 
d="M413 625l20 -32c-118 -57 -179 -104 -239 -201c19 6 36 11 62 11c99 0 186 -80 186 -198c0 -103 -73 -217 -201 -217c-122 0 -214 107 -214 246c0 204 187 345 386 391zM177 354c-9 -37 -18 -76 -18 -154c0 -80 12 -175 81 -175c75 0 75 100 75 180c0 74 -7 162 -88 162
c-14 0 -25 -2 -50 -13z" />
    <glyph glyph-name="seven.taboldstyle" unicode="&#xf64a;" horiz-adv-x="469" 
d="M64 462h385v-43l-237 -583h-95l227 515h-214c-24 0 -30 0 -39 -7c-9 -8 -11 -14 -29 -70h-31z" />
    <glyph glyph-name="eight.taboldstyle" unicode="&#xf64b;" horiz-adv-x="469" 
d="M311 343c40 -23 126 -72 126 -171c0 -85 -68 -184 -207 -184c-125 0 -199 77 -199 160c0 94 89 132 122 146c-38 27 -110 78 -110 165c0 100 89 166 189 166c97 0 193 -58 193 -148c0 -73 -65 -108 -114 -134zM279 364c31 28 44 45 44 113c0 28 0 112 -95 112
c-60 0 -88 -48 -88 -84c0 -65 68 -104 139 -141zM189 274c-27 -24 -51 -46 -51 -125c0 -58 19 -125 100 -125c73 0 99 58 99 101c0 68 -52 99 -148 149z" />
    <glyph glyph-name="nine.taboldstyle" unicode="&#xf64c;" horiz-adv-x="469" 
d="M56 -164l-21 35c165 77 211 152 240 199c-18 -5 -39 -11 -66 -11c-108 0 -184 92 -184 198c0 100 70 216 205 216c133 0 210 -119 210 -243c0 -53 -13 -188 -165 -295c-84 -60 -171 -85 -219 -99zM291 108c8 31 18 71 18 164c0 31 0 167 -81 167c-75 0 -76 -103 -76 -171
c0 -91 10 -172 89 -172c14 0 26 3 50 12z" />
    <glyph glyph-name="dollar.taboldstyle" unicode="&#xf653;" horiz-adv-x="469" 
d="M210 502h43v-29c89 -8 150 -51 150 -92c0 -24 -27 -42 -54 -42c-17 0 -46 9 -58 39c-11 27 -17 46 -38 58v-140c93 -42 168 -77 168 -160c0 -75 -66 -134 -168 -148v-58h-43v58c-96 10 -161 60 -161 108c0 30 29 46 55 46c45 0 55 -33 62 -56c9 -31 17 -52 44 -59v170
c-64 31 -147 71 -147 148c0 87 89 119 147 128v29zM210 318v118c-23 -5 -50 -20 -50 -52c0 -37 35 -58 50 -66zM253 177v-150c33 4 64 33 64 73c0 43 -45 67 -64 77z" />
    <glyph glyph-name="cent.taboldstyle" unicode="&#xf654;" horiz-adv-x="469" 
d="M202 -6l-55 -119h-52l59 129c-68 28 -105 68 -105 140c0 106 101 174 236 174h14l41 87h52l-45 -95c29 -8 70 -26 70 -58c0 -21 -19 -42 -54 -42c-27 0 -43 12 -52 19l-81 -175c22 -15 42 -15 49 -15c51 0 87 36 105 55l37 -17c-52 -68 -123 -86 -184 -86
c-14 0 -23 2 -35 3zM195 94l78 169c-10 7 -18 13 -30 13c-44 0 -62 -58 -62 -108c0 -37 8 -58 14 -74z" />
    <glyph glyph-name="zero.denominator" unicode="&#xf655;" 
d="M28 162c0 84 38 171 128 171c75 0 129 -63 129 -172c0 -120 -69 -167 -129 -167c-74 0 -128 69 -128 168zM115 210v-80c0 -81 8 -111 42 -111c33 0 41 30 41 111v80c0 59 -7 98 -42 98c-33 0 -40 -37 -41 -98z" />
    <glyph glyph-name="one.denominator" unicode="&#xf656;" 
d="M207 335v-282c0 -18 1 -29 22 -30h36v-23h-199v23h35c17 1 21 13 21 30v207c-6 -3 -33 -16 -67 -24l-11 21c49 20 89 46 120 78h43z" />
    <glyph glyph-name="two.denominator" unicode="&#xf657;" 
d="M21 0v22c29 26 104 99 118 115c37 42 38 70 38 85c0 31 -13 63 -53 63c-29 0 -56 -21 -63 -56h-34c10 68 64 105 123 105c64 0 110 -41 110 -95c0 -49 -36 -80 -63 -102c-62 -50 -69 -56 -91 -77h93c31 0 38 3 46 39h30l-12 -99h-242z" />
    <glyph glyph-name="three.denominator" unicode="&#xf658;" 
d="M105 156l-14 21c11 6 62 37 62 76c0 17 -11 35 -36 35c-30 0 -46 -26 -54 -39l-26 10c22 58 74 75 111 75c50 0 86 -28 86 -61c0 -37 -38 -59 -55 -69c66 -8 83 -54 83 -88c0 -82 -81 -122 -152 -122c-52 0 -91 22 -91 46c0 14 13 30 38 30c23 0 31 -11 43 -26
c8 -10 17 -20 36 -20c30 0 45 33 45 66c0 42 -22 70 -54 70c-8 0 -17 -2 -22 -4z" />
    <glyph glyph-name="four.denominator" unicode="&#xf659;" 
d="M149 -6v87h-127v26l171 226h41v-212h50v-40h-50v-87h-85zM72 121h77v102z" />
    <glyph glyph-name="five.denominator" unicode="&#xf65a;" 
d="M53 159l8 168h135c12 0 15 4 18 9h30l-12 -64h-139l-2 -56c11 3 22 5 41 5c88 0 135 -54 135 -111c0 -68 -65 -116 -150 -116c-50 0 -88 19 -88 45c0 13 11 29 37 29c25 0 36 -16 43 -27c6 -8 14 -19 29 -19c23 0 48 22 48 64c0 33 -16 73 -65 73c-22 0 -37 -7 -45 -11z
" />
    <glyph glyph-name="six.denominator" unicode="&#xf65b;" 
d="M241 334l15 -21c-19 -6 -48 -14 -81 -43c-29 -26 -35 -45 -43 -74c10 4 33 9 49 9c42 0 106 -22 106 -101c0 -77 -67 -110 -124 -110c-71 0 -132 48 -132 137c0 129 125 193 210 203zM201 99c0 37 -5 76 -38 76c-7 0 -20 -4 -31 -8c-10 -4 -13 -8 -13 -42
c0 -39 0 -106 42 -106c35 0 40 36 40 80z" />
    <glyph glyph-name="seven.denominator" unicode="&#xf65c;" 
d="M76 -6l133 267h-111c-30 0 -35 0 -42 -30h-32l9 96h250v-25l-137 -308h-70z" />
    <glyph glyph-name="eight.denominator" unicode="&#xf65d;" 
d="M205 183c26 -12 75 -41 75 -90c0 -56 -60 -99 -128 -99c-55 0 -124 31 -124 89c0 33 22 55 65 76c-29 23 -59 47 -59 85c0 46 47 89 119 89c62 0 118 -35 118 -79c0 -42 -45 -63 -66 -71zM177 198c24 19 25 43 25 54c0 28 -12 56 -51 56c-19 0 -47 -9 -47 -41
c0 -15 2 -38 73 -69zM127 141c-5 0 -26 -18 -26 -56c0 -14 3 -65 53 -65c19 0 55 8 55 48c0 19 -8 30 -14 35c-20 19 -66 38 -68 38z" />
    <glyph glyph-name="nine.denominator" unicode="&#xf65e;" 
d="M74 -6l-18 23c24 6 58 16 90 50c5 6 30 34 40 69c-12 -5 -29 -12 -53 -12c-68 0 -107 47 -107 100c0 58 48 110 125 110c71 0 133 -46 133 -136c0 -44 -12 -107 -95 -161c-39 -26 -76 -35 -115 -43zM152 309c-32 0 -39 -30 -39 -79c0 -56 11 -76 36 -76c13 0 30 5 43 14
c2 15 4 35 4 58c0 11 -1 83 -44 83z" />
    <glyph glyph-name="zero.numerator" unicode="&#xf661;" 
d="M28 462c0 84 38 171 128 171c75 0 129 -63 129 -172c0 -120 -69 -167 -129 -167c-74 0 -128 69 -128 168zM115 510v-80c0 -81 8 -111 42 -111c33 0 41 30 41 111v80c0 59 -7 98 -42 98c-33 0 -40 -37 -41 -98z" />
    <glyph glyph-name="one.numerator" unicode="&#xf662;" 
d="M207 634v-283c0 -16 3 -26 18 -26h40v-23h-199v23h35c17 0 21 9 21 27v207c-6 -3 -33 -16 -67 -24l-11 21c49 20 89 46 120 78h43z" />
    <glyph glyph-name="two.numerator" unicode="&#xf663;" 
d="M21 302v22c29 26 104 99 118 114c37 43 38 71 38 84c0 31 -13 63 -53 63c-29 0 -56 -21 -63 -56h-34c10 68 64 105 123 105c64 0 110 -41 110 -95c0 -47 -36 -78 -63 -100c-62 -50 -69 -56 -91 -77h93c31 0 38 3 46 39h30l-12 -99h-242z" />
    <glyph glyph-name="three.numerator" unicode="&#xf664;" 
d="M105 455l-14 22c11 6 62 37 62 76c0 17 -11 35 -36 35c-30 0 -46 -26 -54 -39l-26 10c22 58 74 75 111 75c50 0 86 -28 86 -61c0 -37 -38 -59 -55 -69c66 -8 83 -54 83 -88c0 -82 -81 -122 -152 -122c-52 0 -91 22 -91 46c0 14 13 30 38 30c23 0 31 -11 43 -26
c8 -10 17 -20 36 -20c30 0 45 33 45 66c0 42 -22 70 -54 70c-8 0 -16 -2 -22 -5z" />
    <glyph glyph-name="four.numerator" unicode="&#xf665;" 
d="M149 294v87h-127v26l171 226h41v-212h50v-40h-50v-87h-85zM72 421h77v102z" />
    <glyph glyph-name="five.numerator" unicode="&#xf666;" 
d="M53 459l8 166h135c12 0 15 4 18 9h30l-12 -64h-139l-2 -54c5 2 11 3 18 4c8 1 16 1 23 1c88 0 135 -54 135 -111c0 -68 -65 -116 -150 -116c-50 0 -88 19 -88 45c0 18 16 29 37 29c25 0 36 -16 43 -27c6 -8 14 -19 29 -19c23 0 48 22 48 64c0 33 -16 73 -65 73
c-22 0 -37 -7 -45 -11z" />
    <glyph glyph-name="six.numerator" unicode="&#xf667;" 
d="M241 634l15 -21c-19 -6 -48 -14 -81 -43c-29 -26 -35 -45 -43 -74c10 4 33 9 49 9c42 0 106 -22 106 -101c0 -77 -67 -110 -124 -110c-71 0 -132 48 -132 137c0 129 125 193 210 203zM201 399c0 37 -5 76 -38 76c-7 0 -19 -4 -31 -8c-10 -4 -13 -8 -13 -42
c0 -39 0 -106 42 -106c35 0 40 36 40 80z" />
    <glyph glyph-name="seven.numerator" unicode="&#xf668;" 
d="M76 294l133 266h-111c-30 0 -35 0 -42 -30h-32l9 96h250v-25l-137 -307h-70z" />
    <glyph glyph-name="eight.numerator" unicode="&#xf669;" 
d="M205 483c26 -12 75 -41 75 -90c0 -56 -60 -99 -128 -99c-55 0 -124 31 -124 89c0 33 22 55 65 76c-29 23 -59 47 -59 85c0 46 47 89 119 89c62 0 118 -35 118 -79c0 -42 -45 -63 -66 -71zM177 498c24 19 25 43 25 54c0 28 -12 56 -51 56c-19 0 -47 -9 -47 -41
c0 -15 2 -38 73 -69zM127 441c-5 0 -26 -18 -26 -56c0 -14 3 -65 53 -65c19 0 55 8 55 48c0 19 -8 30 -14 35c-20 19 -66 38 -68 38z" />
    <glyph glyph-name="nine.numerator" unicode="&#xf66a;" 
d="M74 294l-18 23c24 6 58 16 90 50c5 6 30 34 40 69c-12 -5 -29 -12 -53 -12c-68 0 -107 47 -107 100c0 58 48 110 125 110c71 0 133 -46 133 -136c0 -44 -12 -107 -95 -161c-39 -26 -76 -35 -115 -43zM152 609c-32 0 -39 -30 -39 -79c0 -56 11 -76 36 -76c13 0 30 5 43 14
c2 15 4 35 4 58c0 11 -1 83 -44 83z" />
    <glyph glyph-name="R.alt" unicode="&#xe000;" horiz-adv-x="688" 
d="M699 32v-39c-17 0 -92 0 -107 1c-105 7 -127 48 -198 178c-1 0 -35 63 -66 96c-28 -2 -48 -3 -79 -1v-117c0 -86 4 -107 110 -111v-39h-347v39c92 8 99 22 99 103v353c0 70 -13 87 -92 91v36c79 8 258 15 313 15c78 0 149 -10 206 -38c49 -24 91 -77 91 -142
c0 -87 -69 -147 -161 -165c29 -21 53 -64 93 -135c56 -99 91 -124 138 -125zM249 594v-287c116 0 230 3 230 147c0 151 -160 143 -230 140z" />
    <glyph glyph-name="uni2215" unicode="&#x2215;" horiz-adv-x="208" 
d="M-154 -28l445 665h71l-446 -665h-70z" />
    <glyph glyph-name="uni03A9" unicode="&#x3a9;" horiz-adv-x="654" 
d="M624 150l-24 -150h-224l-8 19c36 88 99 213 99 331c-1 187 -65 252 -142 252c-80 0 -138 -58 -138 -256c0 -114 54 -231 97 -327l-9 -19h-224l-22 150l29 1c20 -55 33 -65 71 -65h85c-62 50 -155 128 -155 268c0 173 116 282 269 282c155 0 266 -105 266 -276
c0 -128 -89 -209 -161 -274h95c35 0 47 9 66 65z" />
    <glyph glyph-name="fl" unicode="&#xfb02;" horiz-adv-x="583" 
d="M209 356v-257c0 -50 10 -67 53 -67h12v-32h-254v32h11c41 0 56 18 56 70v254h-67v17l69 32c17 158 161 244 271 244c24 0 54 -4 73 -4c22 0 36 8 42 24h22v-569c0 -49 19 -68 55 -68v-32h-227v32c47 3 50 22 50 69v255h-166zM375 408v144c-32 25 -56 36 -79 36
c-68 0 -87 -54 -87 -130v-50h166z" />
    <glyph glyph-name="onesuperior" unicode="&#xb9;" 
d="M207 743v-283c0 -16 3 -26 18 -26h40v-23h-199v23h35c17 0 21 9 21 27v207c-6 -3 -33 -16 -67 -24l-11 21c49 20 89 46 120 78h43z" />
    <glyph glyph-name="threesuperior" unicode="&#xb3;" 
d="M105 564l-14 22c11 6 62 37 62 76c0 17 -11 35 -36 35c-30 0 -46 -26 -54 -39l-26 10c22 58 74 75 111 75c50 0 86 -28 86 -61c0 -37 -38 -59 -55 -69c66 -8 83 -54 83 -88c0 -82 -81 -122 -152 -122c-52 0 -91 22 -91 46c0 14 13 30 38 30c23 0 31 -11 43 -26
c8 -10 17 -20 36 -20c30 0 45 33 45 66c0 42 -22 70 -54 70c-8 0 -16 -2 -22 -5z" />
    <glyph glyph-name="twosuperior" unicode="&#xb2;" 
d="M21 411v22c29 26 104 99 118 114c37 43 38 71 38 84c0 31 -13 63 -53 63c-29 0 -56 -21 -63 -56h-34c10 68 64 105 123 105c64 0 110 -41 110 -95c0 -47 -36 -78 -63 -100c-62 -50 -69 -56 -91 -77h93c31 0 38 3 46 39h30l-12 -99h-242z" />
    <glyph glyph-name="uni2010" unicode="&#x2010;" horiz-adv-x="417" 
d="M35 153v98h346v-98h-346z" />
    <glyph glyph-name="emdash.alt" horiz-adv-x="1000" 
d="M125 295h750v-90h-750v90z" />
    <glyph glyph-name="slash.frac" horiz-adv-x="208" 
d="M-154 -28l445 665h71l-446 -665h-70z" />
    <glyph glyph-name="space.frac" horiz-adv-x="120" 
 />
    <glyph glyph-name="uni00A0.frac" horiz-adv-x="120" 
 />
    </font>
</defs>
</svg>
